<ttFont>
<head>
    <!-- Most of this table will be recalculated by the compiler -->
    <tableVersion value="1.0"/>
    <fontRevision value="0.4"/>
    <checkSumAdjustment value="0xa56cd8f1"/>
    <magicNumber value="0x5f0f3cf5"/>
    <flags value="00000000 00000011"/>
    <unitsPerEm value="1000"/>
    <created value="Thu Jan  1 00:00:00 1970"/>
    <modified value="Thu Jan  1 00:00:00 1970"/>
    <xMin value="-309"/>
    <yMin value="-154"/>
    <xMax value="1828"/>
    <yMax value="1201"/>
    <macStyle value="00000000 00000000"/>
    <lowestRecPPEM value="3"/>
    <fontDirectionHint value="2"/>
    <indexToLocFormat value="0"/>
    <glyphDataFormat value="0"/>
  </head>
              <CharString index="0">
                400 1 blend
              </CharString>
              <CharString index="1">
                -81 callsubr
                hlineto
                -20 -96 callsubr
              </CharString>
              <CharString index="2">
                rmoveto
                238 callsubr
              </CharString>
              <CharString index="3">
                69 56 216 callsubr
                55 -57 70 vhcurveto
              </CharString>
              <CharString index="4">
                -95 vlineto
                258 callsubr
                95 -100 -53 vlineto
                -25 -25 -25 25 rlineto
                53 vlineto
              </CharString>
              <CharString index="5">
                rmoveto
                -43 callsubr
              </CharString>
              <CharString index="6">
                -107 callsubr
                -105 callsubr
              </CharString>
              <CharString index="7">
                rmoveto
                224 callsubr
              </CharString>
              <CharString index="8">
                vmoveto
                75 callsubr
              </CharString>
              <CharString index="9">
                rmoveto
                -55 callsubr
              </CharString>
              <CharString index="10">
                rmoveto
                170 -6 callsubr
                0 -50 -50 vhcurveto
                -20 hlineto
              </CharString>
              <CharString index="11">
                vmoveto
                -83 callsubr
              </CharString>
              <CharString index="12">
                rmoveto
                100 53 hlineto
                25 25 25 -25 rlineto
                -53 100 95 vlineto
                -125 125 -125 -125 rlineto
              </CharString>
              <CharString index="13">
                rmoveto
                -100 100 100 vlineto
              </CharString>
              <CharString index="14">
                rmoveto
                100 10 hlineto
                83 -67 67 -83 vhcurveto
                -10 -100 10 hlineto
                28 22 -22 -28 hvcurveto
              </CharString>
              <CharString index="15">
                rmoveto
                100 150 -70 1 blend
                -100 hlineto
                400 -150 1 blend
                vmoveto
                100 250 -181 1 blend
                -100 hlineto
                -506 301 153 callsubr
                -300 1 blend
                rmoveto
                -83 callsubr
              </CharString>
              <CharString index="16">
                -200 1 blend
                rmoveto
                100 250 -200 1 blend
                -100 hlineto
                -800 -107 callsubr
                vmoveto
                -20 callsubr
                250 -100 183 callsubr
                180 -220 1 blend
                -96 callsubr
              </CharString>
              <CharString index="17">
                rmoveto
                111 20 1 blend
                hlineto
                639 1050 -20 -400 2 blend
                rlineto
                -111 -20 1 blend
                hlineto
                -539 20 1 blend
                -100 rmoveto
                580 -30 1 blend
                100 -580 30 1 blend
                hlineto
                20 203 callsubr
              </CharString>
              <CharString index="18">
                -22 -16 2 blend
                rmoveto
                679 679 22 -284 2 blend
                rlineto
                56 -15 1 blend
                vlineto
                -43 43 -707 -707 -26 -9 26 324 4 blend
                rlineto
                100 850 -84 callsubr
                rmoveto
                580 100 -580 hlineto
                550 -342 100 1 blend
                rmoveto
                100 342 -100 1 blend
                -100 hlineto
                -530 203 callsubr
              </CharString>
              <CharString index="19">
                -980 -97 callsubr
              </CharString>
              <CharString index="20">
                22 callsubr
                150</CharString>
              <CharString index="21">
                rmoveto
                -122 118 26 -57 -13 -73 -45 -47 rlinecurve
                0 35 36 36 -35 vhcurveto
                14 -14 rlineto
              </CharString>
              <CharString index="22">
                -24 callsubr
                700 -100 rmoveto
                -13 callsubr
              </CharString>
              <CharString index="23">
                -400 1 blend
              </CharString>
              <CharString index="24">
                100 20 hlineto
                49 47 1 3 vhcurveto
                -65 30 -55 52 -30 68 rrcurveto
              </CharString>
              <CharString index="25">
                150 -7 callsubr
              </CharString>
              <CharString index="26">
                -84 callsubr
                -100</CharString>
              <CharString index="27">
                rmoveto
                100 20 hlineto
                50 50 0 0 -65 -62 42 58 -23 vhcurveto
              </CharString>
              <CharString index="28">
                hmoveto
                174 hlineto
                -87 150 rlineto
              </CharString>
              <CharString index="29">
                rmoveto
                208 callsubr
              </CharString>
              <CharString index="30">
                71 callsubr
                799 vlineto
                1 100 rlineto
                -100 -250 140 callsubr
              </CharString>
              <CharString index="31">
                800 100 -800 168 callsubr
                700 -160 -93 callsubr
              </CharString>
              <CharString index="32">
                rmoveto
                -4 callsubr
              </CharString>
              <CharString index="33">
                -9 callsubr
                -150 -1000 rmoveto
                100 395 -100 hlineto
                150 -395 rmoveto
                31 callsubr
              </CharString>
              <CharString index="34">
                rmoveto
                24 callsubr
              </CharString>
              <CharString index="35">
                -85 callsubr
                25 150 -78 callsubr
                -675</CharString>
              <CharString index="36">
                rmoveto
                -26 callsubr
              </CharString>
              <CharString index="37">
                rmoveto
                -3 callsubr
                95 -100 -95 228 callsubr
                44 111 rmoveto
                -95 253 callsubr
                vhcurveto
                -95 100 95 254 callsubr
                vhcurveto
                95 vlineto
                -106 -229 84 callsubr
                -95 100 95 229 callsubr
                6 489 -18 callsubr
              </CharString>
              <CharString index="38">
                -40 callsubr
                -250 vmoveto
                -40 callsubr
                700 -100 140 callsubr
                25 330 -78 callsubr
              </CharString>
              <CharString index="39">
                650 100 -650 hlineto
                700 -100 rmoveto
                -13 callsubr
                25 -400 rmoveto
                -104 callsubr
                -125 330 -95 callsubr
              </CharString>
              <CharString index="40">
                71 callsubr
                800 100 vlineto
                192 callsubr
                -25 -400 rmoveto
                -104 callsubr
              </CharString>
              <CharString index="41">
                -23 callsubr
                -100 -400 rmoveto
              </CharString>
              <CharString index="42">
                -13 callsubr
                -650 -42 callsubr
                675 300 -78 callsubr
                -550 vmoveto
                -104 callsubr
              </CharString>
              <CharString index="43">
                198 callsubr
                100 -58 callsubr
                50 rmoveto
                -40 callsubr
                675 -400 rmoveto
                -104 callsubr
                25 240 -93 callsubr
              </CharString>
              <CharString index="44">
                -13 callsubr
                -650 -42 callsubr
                550 80 -95 callsubr
                -205 vmoveto
                -103 callsubr
              </CharString>
              <CharString index="45">
                100 100 -58 callsubr
                -100 rmoveto
                650 100 -650 168 callsubr
                550 -180 rmoveto
                -103 callsubr
                50 20 -93 callsubr
              </CharString>
              <CharString index="46">
                rmoveto
                100 565 -81 callsubr
                hlineto
              </CharString>
              <CharString index="47">
                rmoveto
                -150 -100 150 hlineto
              </CharString>
              <CharString index="48">
                350 100 -350 hlineto
              </CharString>
              <CharString index="49">
                -100 hlineto
                -700</CharString>
              <CharString index="50">
                58 callsubr
                250 -58 callsubr
                -42 callsubr
                675 300 -78 callsubr
              </CharString>
              <CharString index="51">
                58 callsubr
                250 -58 callsubr
                -42 callsubr
                550 80 -95 callsubr
              </CharString>
              <CharString index="52">
                1000 -84 callsubr
                -100 -1000 -107 callsubr
                vlineto
                100 980 -84 callsubr
                -100 callsubr
              </CharString>
              <CharString index="53">
                43 callsubr
                -20 -100 rmoveto
                100 245 -100 hlineto
                106</CharString>
              <CharString index="54">
                150 hmoveto
                -19 callsubr
              </CharString>
              <CharString index="55">
                -50 100 -94 callsubr
                -100 vmoveto
              </CharString>
              <CharString index="56">
                -37 callsubr
                6 564 -18 callsubr
              </CharString>
              <CharString index="57">
                46 callsubr
                250 -70 1 blend
                -100 -250 70 1 blend
                vlineto
                100 -750 1190 1 blend
                rmoveto
                350 -190 1 blend
                -100 -350 190 1 blend
                vlineto
                100 494 -640 1 blend
                255 callsubr
                50 1 blend
                100 vlineto
                -150 100 -50 1 blend
                rmoveto
                83 67 67 83 hvcurveto
                250 -140 1 blend
                -100 -250 140 1 blend
                186 callsubr
                -200 1 blend
                -100 callsubr
              </CharString>
              <CharString index="58">
                rmoveto
                75 callsubr
              </CharString>
              <CharString index="59">
                250 100 -250 hlineto
              </CharString>
              <CharString index="60">
                420 -200 1 blend
                -100 -420 200 1 blend
                vlineto
                100 730 -230 1 blend
                rmoveto
                270 -170 1 blend
                -100 -270 170 1 blend
                vlineto
                100 250 -170 1 blend
                -100 callsubr
                100 -380 200 1 blend
                rmoveto
                200 -80 1 blend
                -100 -100 80 1 blend
                -50 vlineto
                39 callsubr
                50 -100 80 1 blend
                100 200 -80 1 blend
                239 callsubr
              </CharString>
              <CharString index="61">
                -14 callsubr
                -100 hmoveto
              </CharString>
              <CharString index="62">
                -1200 -107 callsubr
                -97 callsubr
              </CharString>
              <CharString index="63">
                -9 callsubr
                -1000 vmoveto
                31 callsubr
              </CharString>
              <CharString index="64">
                170 vlineto
                -58 -23 -62 -42 -65 hhcurveto
                45 callsubr
                -20 vlineto
              </CharString>
              <CharString index="65">
                -250 rmoveto
                -40 callsubr
              </CharString>
              <CharString index="66">
                -107 callsubr
                -94 callsubr
              </CharString>
              <CharString index="67">
                650 100 -650 hlineto
              </CharString>
              <CharString index="68">
                rmoveto
                -100 50 100 vlineto
              </CharString>
              <CharString index="69">
                rmoveto
                58 100 -58 hlineto
              </CharString>
              <CharString index="70">
                rmoveto
                -3 callsubr
                20 -100 -20 228 callsubr
                38 -118 84 callsubr
                -14 -11 -11 -14 -69 -56 -56 -69 vhcurveto
                -20 100 20 254 callsubr
                236 callsubr
                -19 9 rmoveto
                69 56 56 69 hvcurveto
                20 -100 -20 253 callsubr
                -24 7 -23 250 callsubr
                -3 callsubr
                14 11 11 14 vhcurveto
                19 -159 84 callsubr
                -20 100 20 229 callsubr
              </CharString>
              <CharString index="71">
                100 250 -70 1 blend
                -100 hlineto
                -1000 1260 1 blend
                vmoveto
                100 350 -190 1 blend
                -100 hlineto
                144 -450 153 callsubr
                -200 1 blend
                rmoveto
                -83 callsubr
              </CharString>
              <CharString index="72">
                69 callsubr
                -250 -75 callsubr
                -25 150 -78 callsubr
              </CharString>
              <CharString index="73">
                27 callsubr
                675 -250 rmoveto
                -104 callsubr
                25 240 -93 callsubr
              </CharString>
              <CharString index="74">
                -39 callsubr
                -42 -100 rmoveto
                -24 callsubr
                700 -100 -75 callsubr
                -550 -100 -22 callsubr
                400 -70 -95 callsubr
              </CharString>
              <CharString index="75">
                50 hmoveto
                -4 callsubr
              </CharString>
              <CharString index="76">
                -100 rmoveto
                -40 callsubr
              </CharString>
              <CharString index="77">
                300 100 -300 hlineto
              </CharString>
              <CharString index="78">
                rmoveto
                -100 -100 100 hlineto
              </CharString>
              <CharString index="79">
                -20 callsubr
                -1000 vmoveto
                100 300 -100 hlineto
                487 vmoveto
                100 140 -100 hlineto
                -704 vmoveto
                100 140 -100 hlineto
                71 495 rmoveto
                -71 -71 99 -99 71 71 rlineto
                24 10 rmoveto
                -194 -194 99 -99 71 71 -29 28 125 124 10 9 15 1 10 -10 rlinecurve
                10 -10 -1 -16 -9 -9 -11 -11 rcurveline
                71 -71 10 10 49 49 1 79 -50 49 rlinecurve
                -49 48 -79 1 -49 -49 rrcurveto
                177 -211 rmoveto
                -116 116 -71 -71 117 -117 9 -9 0 -16 -9 -10 rlinecurve
                -10 -11 -15 1 -10 10 -11 11 rcurveline
                -71 -71 10 -10 49 -49 79 -1 49 50 rlinecurve
                48 49 1 79 -49 49 rrcurveto
                -300 -266 rmoveto
                205 205 -71 71 -205 -205 rlineto
                617 -96 callsubr
              </CharString>
              <CharString index="80">
                rmoveto
                30 callsubr
              </CharString>
              <CharString index="81">
                28 22 22 28 28 -22 22 -28 -28 -22 -22 -28 -28 22 -22 28 hvcurveto
              </CharString>
              <CharString index="82">
                100 200 -100 hlineto
                -250 -200 -7 callsubr
              </CharString>
              <CharString index="83">
                800 100 -800 hlineto
              </CharString>
              <CharString index="84">
                400 vmoveto
                -200 100 200 vlineto
              </CharString>
              <CharString index="85">
                rmoveto
                262 callsubr
              </CharString>
              <CharString index="86">
                rmoveto
                100 200 -100 hlineto
              </CharString>
              <CharString index="87">
                100 150 -100 hlineto
              </CharString>
              <CharString index="88">
                150 100 -150 hlineto
              </CharString>
              <CharString index="89">
                rmoveto
                -83 callsubr
                -50 -220 -100 callsubr
              </CharString>
              <CharString index="90">
                0 vmoveto
                -16 callsubr
              </CharString>
              <CharString index="91">
                240 callsubr
                50 -73 callsubr
              </CharString>
              <CharString index="92">
                -39 callsubr
                -42 -100 rmoveto
                73 callsubr
                -550 -31 callsubr
              </CharString>
              <CharString index="93">
                300 hmoveto
                250 -100 -250 -10 callsubr
              </CharString>
              <CharString index="94">
                -4 callsubr
                -700 hmoveto
                -100 650 100 vlineto
              </CharString>
              <CharString index="95">
                50 -22 callsubr
                550</CharString>
              <CharString index="96">
                rmoveto
                -100 -200 hlineto
                50 50 100 50 hvcurveto
              </CharString>
              <CharString index="97">
                235 callsubr
                83 67 67 83 vhcurveto
              </CharString>
              <CharString index="98">
                200 705 rmoveto
                100 295 -100 hlineto
              </CharString>
              <CharString index="99">
                rmoveto
                86 50 -30 52 -5 -37 -21 -36 -35 -20 rlinecurve
              </CharString>
              <CharString index="100">
                rmoveto
                200 100 -200 hlineto
              </CharString>
              <CharString index="101">
                82 callsubr
                0</CharString>
              <CharString index="102">
                -32 callsubr
                -100 -150 -94 callsubr
                -100 vmoveto
              </CharString>
              <CharString index="103">
                100 250 -100 hlineto
              </CharString>
              <CharString index="104">
                -4 4 -2 6 6 vvcurveto
              </CharString>
              <CharString index="105">
                58 100 -58 hlineto
                -357 221 rmoveto
                212 callsubr
                80 384 rmoveto
                100 286 -100 hlineto
                164 -895 rmoveto
                -188 325 -51 -109 7 -12 41 -72 30 -51 49 -85 16 -28 rlineto
                20 -34 2 -13 -13 vvcurveto
                -47 -38 -38 -47 -47 -38 38 47 15 0 14 17 29 vhcurveto
                60 105 -29 51 -70 -122 rlineto
                -16 -27 -12 -31 -34 vvcurveto
                -90 72 -73 90 90 70 73 90 34 -10 32 -18 26 vhcurveto
                -128 242 rmoveto
                30 -51 122 214 82 153 -96 122 -174 -34 rlinecurve
                -51 vlineto
                142 32 64 -83 -62 -115 rrcurveto
                -169 1 rmoveto
                79 -137 57 99 -60 103 40 callsubr
                120 -209 rmoveto
                187 -326 58 100 -188 326 rlineto
              </CharString>
              <CharString index="106">
                86 callsubr
                675 300 -78 callsubr
              </CharString>
              <CharString index="107">
                86 callsubr
                550 80 -95 callsubr
              </CharString>
              <CharString index="108">
                133 callsubr
                250 -58 callsubr
                -42 callsubr
                675 300 -78 callsubr
                -550 vmoveto
                -104 callsubr
                -300 585 -61 callsubr
              </CharString>
              <CharString index="109">
                150 rmoveto
                140 hlineto
                285 285 -62 78 rlineto
                -421 -413 -57 callsubr
                -125 -330 rmoveto
                -103 callsubr
                -275 365 -61 callsubr
              </CharString>
              <CharString index="110">
                626 -79 callsubr
                -563 -150 rmoveto
                125 callsubr
              </CharString>
              <CharString index="111">
                150 rmoveto
                140 hlineto
                285 285 -62 78 rlineto
                -421 -413 -56 callsubr
                125 -425 rmoveto
                -104 callsubr
                -300 585 -61 callsubr
              </CharString>
              <CharString index="112">
                150 rmoveto
                140 hlineto
                285 285 -62 78 rlineto
                -421 -413 -34 callsubr
                -325 335 -61 callsubr
              </CharString>
              <CharString index="113">
                150 rmoveto
                140 hlineto
                285 285 -62 78 rlineto
                -421 -413 -56 callsubr
                -205 vmoveto
                -103 callsubr
                -275 365 -61 callsubr
              </CharString>
              <CharString index="114">
                89 callsubr
                100 -58 callsubr
                -31 callsubr
              </CharString>
              <CharString index="115">
                91 callsubr
                73 callsubr
                -550 -31 callsubr
              </CharString>
              <CharString index="116">
                133 callsubr
                100 -58 callsubr
                -31 callsubr
                550 -30 rmoveto
                -103 callsubr
                50 20 -93 callsubr
                -325 335 -61 callsubr
              </CharString>
              <CharString index="117">
                50 callsubr
                150 -12 callsubr
              </CharString>
              <CharString index="118">
                150 rmoveto
                141 hlineto
                422 422 -103 39 rlineto
                -6 -72 rmoveto
                109 33 -321 321 -71 -70 rlineto
                -229 -723 -57 callsubr
              </CharString>
              <CharString index="119">
                150 rmoveto
                140 hlineto
                285 285 -62 78 rlineto
                -421 -413 -15 callsubr
                525 -400 rmoveto
                -104 callsubr
                -300 585 -61 callsubr
              </CharString>
              <CharString index="120">
                150 rmoveto
                140 hlineto
                285 285 -62 78 rlineto
                -421 -413 -35 callsubr
                -300 35 -61 callsubr
              </CharString>
              <CharString index="121">
                150 rmoveto
                140 hlineto
                285 285 -62 78 rlineto
                -421 -413 -15 callsubr
                400 -180 rmoveto
                -103 callsubr
                -275 365 -61 callsubr
              </CharString>
              <CharString index="122">
                150 rmoveto
                140 hlineto
                285 285 -62 78 rlineto
                -421 -413 -33 callsubr
                -175 160 -61 callsubr
              </CharString>
              <CharString index="123">
                -15 -12 121 callsubr
              </CharString>
              <CharString index="124">
                -94 callsubr
                100 529 162 callsubr
                18 506 -18 callsubr
              </CharString>
              <CharString index="125">
                150 rmoveto
                140 hlineto
                285 285 -62 78 rlineto
                -421 -413 69 callsubr
                -160 -93 callsubr
                -325 335 -61 callsubr
              </CharString>
              <CharString index="126">
                106 callsubr
                250 -58 callsubr
                -42 callsubr
                550 80 -95 callsubr
              </CharString>
              <CharString index="127">
                hmoveto
                21 callsubr
              </CharString>
              <CharString index="128">
                100 420 -200 1 blend
                -100 hlineto
                310 -30 1 blend
                vmoveto
                100 270 -170 1 blend
                -100 hlineto
                -20 -96 callsubr
                -600 200 183 callsubr
              </CharString>
              <CharString index="129">
                170 hmoveto
                238 callsubr
              </CharString>
              <CharString index="130">
                116 hlineto
                -295 508 234 callsubr
                307 -535 81 callsubr
                rlineto
                -145 hlineto
                -73 -126 rlineto
              </CharString>
              <CharString index="131">
                100 200 -100 hlineto
                -150 -250 rmoveto
                -48 callsubr
                150 140 rmoveto
                201 callsubr
              </CharString>
              <CharString index="132">
                rmoveto
                -43 callsubr
                -50 hmoveto
                -43 callsubr
              </CharString>
              <CharString index="133">
                150 hmoveto
                650 250 -100 -150 -550 hlineto
                20 -100 -105 callsubr
                800 230 -102 callsubr
              </CharString>
              <CharString index="134">
                58 callsubr
                100 -58 callsubr
                -31 callsubr
              </CharString>
              <CharString index="135">
                rlineto
                5 -9 3 -11 -11 vvcurveto
                -35 -28 -28 -35 -35 -28 28 35 11 3 11 5 9 vhcurveto
              </CharString>
              <CharString index="136">
                45 callsubr
                -266 100 350 vlineto
                45 callsubr
                -300 100 400 vlineto
                -136 -54 -181 -43 -133 -3 rrcurveto
                45 callsubr
              </CharString>
              <CharString index="137">
                -26 callsubr
                150 hmoveto
                -26 callsubr
              </CharString>
              <CharString index="138">
                100 395 -100 hlineto
                -150 310 rmoveto
                100 295 -100 hlineto
              </CharString>
              <CharString index="139">
                -12 callsubr
                -250 rmoveto
                100</CharString>
              <CharString index="140">
                100 50 -11 callsubr
                -100</CharString>
              <CharString index="141">
                247 callsubr
                150 hmoveto
                100 210 -100 hlineto
              </CharString>
              <CharString index="142">
                460 -100 -460 vlineto
                150 hmoveto
                100 460 -100 hlineto
              </CharString>
              <CharString index="143">
                150 100 -29 callsubr
                -150</CharString>
              <CharString index="144">
                14 11 11 14 14 11 -11 -14 -14 -11 -11 -14</CharString>
              <CharString index="145">
                hlineto
                250 -100 -21 callsubr
              </CharString>
              <CharString index="146">
                -83 -67 -67 -83 -83 67 -67 83 hvcurveto
              </CharString>
              <CharString index="147">
                -20 -23 -22 -23 -34 -19 rlinecurve
              </CharString>
              <CharString index="148">
                rmoveto
                100 210 -100 hlineto
              </CharString>
              <CharString index="149">
                hmoveto
                400 100 -400 hlineto
              </CharString>
              <CharString index="150">
                rmoveto
                -100 120 100 vlineto
              </CharString>
              <CharString index="151">
                750 -750 1 blend
              </CharString>
              <CharString index="152">
                0 50 0 -50 vvcurveto
              </CharString>
              <CharString index="153">
                -750 1 blend
                rmoveto
              </CharString>
              <CharString index="154">
                -74 callsubr
                -100 -900 -94 callsubr
                106 584 -37 callsubr
                6 564 -18 callsubr
              </CharString>
              <CharString index="155">
                -74 callsubr
                -100 -900 17 callsubr
              </CharString>
              <CharString index="156">
                50 44 callsubr
                rmoveto
                -36 callsubr
              </CharString>
              <CharString index="157">
                91 callsubr
                -24 callsubr
              </CharString>
              <CharString index="158">
                159 callsubr
                370 -6 callsubr
                -16 -50 -65 -79 -53 108 185 callsubr
              </CharString>
              <CharString index="159">
                50 20 callsubr
              </CharString>
              <CharString index="160">
                -66 callsubr
                -72 callsubr
                -20 -80 callsubr
              </CharString>
              <CharString index="161">
                132 callsubr
                73 callsubr
                -550 -31 callsubr
              </CharString>
              <CharString index="162">
                0 vmoveto
                240 callsubr
                -150 72 callsubr
                -150 -50 rmoveto
                -30 callsubr
                290 252 callsubr
                -10 hlineto
              </CharString>
              <CharString index="163">
                41 -150 rmoveto
                60 49 49 59 hvcurveto
                142 -100 -150 vlineto
                -35 -27 -27 -35 -15 -12 4 8 -11 vhcurveto
                -30 20 33 -20 38 hhcurveto
                109 230 -102 callsubr
              </CharString>
              <CharString index="164">
                -94 callsubr
                700 -100 rmoveto
                -65 callsubr
              </CharString>
              <CharString index="165">
                -39 callsubr
                108 32 callsubr
              </CharString>
              <CharString index="166">
                -94 callsubr
                50 vmoveto
                -69 callsubr
              </CharString>
              <CharString index="167">
                -94 callsubr
                -100 vmoveto
                -68 callsubr
              </CharString>
              <CharString index="168">
                -94 callsubr
                -100 vmoveto
                -64 callsubr
              </CharString>
              <CharString index="169">
                -94 callsubr
                700 -100 rmoveto
                -63 callsubr
              </CharString>
              <CharString index="170">
                -94 callsubr
                700 -100 rmoveto
                -62 callsubr
              </CharString>
              <CharString index="171">
                29 rmoveto
                -57 100 -72 -124 rlineto
                -18 -26 -10 -32 -34 vvcurveto
                233 callsubr
              </CharString>
              <CharString index="172">
                151 -150 rmoveto
                83 66 67 83 96 -41 54 -59 100 hvcurveto
                -61 -14 -48 -36 -41 vhcurveto
                31 -32 19 -33 -35 vvcurveto
                256 callsubr
                68 -67 83 vhcurveto
              </CharString>
              <CharString index="173">
                -6 37 -12 23 -39 15 16 33 -3 43 -19 34 -6 -42 -19 -35 -64 -32 -74 -37 -30 -75 25 -79</CharString>
              <CharString index="174">
                30 -27 21 -33 7 -40 rrcurveto
                17 10 15 8 14 hhcurveto
                22 15 -8 -23 11 hvcurveto
                6 -12 25 -70 7 -18 16 -40 22 -42 24 -37 rrcurveto
              </CharString>
              <CharString index="175">
                100 1000 -106 callsubr
                80 -45 callsubr
              </CharString>
              <CharString index="176">
                -39 callsubr
                -42 -100 rmoveto
                -24 callsubr
                150 -12 callsubr
              </CharString>
              <CharString index="177">
                rmoveto
                22 18 18 22 22 -18 18 -22 -22 -18 -18 -22 -22 18 -18 22 hvcurveto
              </CharString>
              <CharString index="178">
                -40 callsubr
                150 vmoveto
                -100</CharString>
              <CharString index="179">
                rmoveto
                200 -50 -50 vlineto
                -46 15 -78 35 -26 vhcurveto
                0 vmoveto
                35 26 15 78 46 vvcurveto
                50 -50 vlineto
              </CharString>
              <CharString index="180">
                198 callsubr
                250 -100 hlineto
              </CharString>
              <CharString index="181">
                -84 callsubr
                rmoveto
                -83 callsubr
              </CharString>
              <CharString index="182">
                -170 vlineto
                58 23 62 42 65 hhcurveto
                0 -50 0 50 vvcurveto
                20 vlineto
              </CharString>
              <CharString index="183">
                -4 callsubr
                150 -250 -75 callsubr
              </CharString>
              <CharString index="184">
                hhcurveto
                -41 -34 34 41 41 34 34 41 26 24 -14 -21 13</CharString>
              <CharString index="185">
                -74 -68 rlineto
                359 -325 -38 callsubr
              </CharString>
              <CharString index="186">
                -15 40 -12 34 -15 32 rrcurveto
                58 -27 -46 30 -60 hhcurveto
                -27 -45 -11 -13 -30 hvcurveto
              </CharString>
              <CharString index="187">
                150 hmoveto
                200 100 -200 hlineto
                300</CharString>
              <CharString index="188">
                58 100 -289 500</CharString>
              <CharString index="189">
                hlineto
                -58 23 -42 62 65 vvcurveto
              </CharString>
              <CharString index="190">
                hlineto
                37 -50 16 -50 -3 -50</CharString>
              <CharString index="191">
                rmoveto
                4 -4 2 -6 -6 vvcurveto
              </CharString>
              <CharString index="192">
                rmoveto
                100 500 -100 hlineto
              </CharString>
              <CharString index="193">
                89 callsubr
                250 -58 callsubr
                -42 callsubr
              </CharString>
              <CharString index="194">
                104 callsubr
                700 -81 callsubr
                -630 205 callsubr
                630 -81 callsubr
                -700 -107 callsubr
                vlineto
                5 4 0 -1 5 hvcurveto
                -164 701 -84 callsubr
                rmoveto
                -258 100 258 vlineto
                450 hmoveto
                -100 -258 100 hlineto
                -425 398 -78 callsubr
                300 hmoveto
                208 callsubr
                -325 -378 rmoveto
                -100 -20 hlineto
                -49 -47 -1 -3 vhcurveto
                65 -30 55 -52 30 -68 rrcurveto
                350 220 rmoveto
                -220 vlineto
                30 68 55 52 65 30 rrcurveto
                -3 -47 1 49 hvcurveto
                20 vlineto
              </CharString>
              <CharString index="195">
                55 callsubr
                -265 400 rmoveto
                3 96 0 1 hhcurveto
                500 -81 callsubr
                vlineto
                150 hmoveto
                -500 -107 callsubr
                100 500 -84 callsubr
                vlineto
                -150 -725 -107 callsubr
                rmoveto
                47 124 78 174 vhcurveto
                -108 90 rlineto
                -155 -29 -135 -76 -110 vvcurveto
                -21 5 -21 10 -17 vhcurveto
                24 23 32 16 35 4 rrcurveto
                -3 callsubr
                -248 125 rmoveto
                40 38 0 -6 34 hvcurveto
                32 43 48 30 56 6 rrcurveto
                101 vlineto
                -110 -9 -94 -69 -44 -96 rrcurveto
                546 hmoveto
                -44 96 -94 69 -110 9 rrcurveto
                -101 vlineto
                56 -6 48 -30 32 -43 rrcurveto
                6 34 38 0 40 hhcurveto
                -546 hmoveto
                67 60 -12 -16 47 hvcurveto
                21 26 30 23 37 20 -45 22 -53 17 -56 10 rrcurveto
                15 -440 187 callsubr
                31 -11 29 -19 25 vhcurveto
                -40 -14 -30 -18 -19 -17 rrcurveto
                12 -13 7 -12 -11 vvcurveto
                -13 -11 -12 -14 -83 -67 -67 -83 vhcurveto
                125 880 -84 callsubr
                -100 callsubr
                150 hmoveto
                -83 callsubr
              </CharString>
              <CharString index="196">
                93 callsubr
                108 32 callsubr
              </CharString>
              <CharString index="197">
                109 callsubr
                -35 1000 -84 callsubr
                rmoveto
                -9 35 -14 34 -17 31 rrcurveto
                100 hlineto
                138 112 -112 -138 hvcurveto
                -590 -107 callsubr
                vlineto
                -101 -15 -49 -41 -29 vvcurveto
                -6 2 -6 4 -4 vhcurveto
                -35 -4 -32 -16 -24 -23 rrcurveto
                -10 17 -5 21 21 vvcurveto
                85 59 47 91 23 vhcurveto
                520 -84 callsubr
                vlineto
                83 -67 67 -83 vhcurveto
                -50 -50 rmoveto
                50 hlineto
                55 45 -45 -55 hvcurveto
                -520 -107 callsubr
                vlineto
                9 -2 -44 -17 -32 -23 -19 -29 rlinecurve
                1 -5 -4 0 -5 hhcurveto
                550 -84 callsubr
                vlineto
                22 -18 18 -22 vhcurveto
                -10 hlineto
                5 32 -1 34 -4 34 rrcurveto
              </CharString>
              <CharString index="198">
                93 callsubr
                -42 -100 rmoveto
              </CharString>
              <CharString index="199">
                104 callsubr
                640 -81 callsubr
                -570 205 callsubr
                570 -81 callsubr
                -640 -107 callsubr
                vlineto
                5 4 0 -1 5 hvcurveto
                86 621 -84 callsubr
                -100 callsubr
                150 hmoveto
                -83 callsubr
              </CharString>
              <CharString index="200">
                150 rmoveto
                200 100 -120 hlineto
                420 704 rmoveto
                159 -14 -107 87 -178 hhcurveto
                -201 hlineto
                58 -39 36 -47 6 -64 rrcurveto
                33 35 19 17 47 hhcurveto
                126 64 -49 -105 9 hvcurveto
                16 -189 -133 -183 -128 -175 -57 -78 -78 -104 -20 -67 rrcurveto
                107 hlineto
                92 180 329 302 -28 322 rrcurveto
                -558 -854 -39 callsubr
              </CharString>
              <CharString index="201">
                rmoveto
                66 16 70 103 129 hhcurveto
                197 17 -170 -101 -58 hvcurveto
                -115 -200 57 -100 145 253 rlineto
                42 73 0 60 29 vvcurveto
                138 -112 112 -138 -138 -112 -125 -138 vhcurveto
                -650 vmoveto
                -19 callsubr
                245 64 callsubr
                -181 312 -80 -59 182 -314 28 callsubr
                154 -44 rmoveto
                210 100 -210 hlineto
                -231 207 callsubr
                223 -88 rmoveto
                135 -235 83 56 -161 278 rlineto
                -69 120 rmoveto
                -80 139 40 callsubr
                99 -173 rlineto
                -20 729 rmoveto
                6 -79 -112 -56 52 -94 149 -10 rcurveline
                4 vlineto
                -34 11 -38 35 -6 41 -7 48 20 61 1 44 2 67 -47 3 -15 -4 rrcurveto
                6 -79 70 callsubr
              </CharString>
              <CharString index="202">
                55 callsubr
                -133 392 rmoveto
                3 -4 22 -29 27 -26 20 -25 rlinecurve
                95 104 126 160 228 vvcurveto
                200 -90 100 -195 vhcurveto
                10 -33 0 -34 -10 -33 rrcurveto
                90 95 -10 -190 -185 -103 -122 -90 -101 hvcurveto
                -307 408 rmoveto
                -366 325 -190 -69 vvcurveto
                -6 -2 -6 -4 -4 vhcurveto
                35 -4 32 -16 24 -23 rrcurveto
                10 17 5 21 21 166 -325 130 329 vvcurveto
                190 95 10 90 vhcurveto
                -10 33 0 34 10 33 rrcurveto
                -195 -90 -100 -200 hvcurveto
                150 -850 rmoveto
                300 50 hlineto
                83 -67 67 -83 -14 -11 11 14 10 7 13 12 15 vhcurveto
                -11 13 -16 17 -23 25 -22 24 rcurveline
                -28 -39 -19 -38 -40 vvcurveto
                -69 56 -56 69 242 callsubr
                18 9 16 15 9 vhcurveto
                -36 7 -30 21 -20 29 rrcurveto
                -24 -27 -14 -35 -38 vvcurveto
              </CharString>
              <CharString index="203">
                75 302 rmoveto
                100 698 -81 callsubr
                hlineto
                250 -698 -107 callsubr
                rmoveto
                698 -81 callsubr
                -698 -107 callsubr
                vlineto
                -225 -302 rmoveto
                249 callsubr
                400 hmoveto
                260 callsubr
                -290 hmoveto
                -30 callsubr
                200 -50 rmoveto
                -50 -200 hlineto
                35 26 15 78 46 vvcurveto
                -100 50 rmoveto
                -50 vlineto
                -46 15 -78 35 -26 vhcurveto
                200 vlineto
                100 vmoveto
                69 56 244 callsubr
                -83 -67 -67 -83 vhcurveto
                -50 300 50 vlineto
                202 callsubr
                vhcurveto
                -19 109 rmoveto
                -4 4 -2 5 6 vvcurveto
                46 -100 -44 vlineto
                -22 5 -20 10 -18 vhcurveto
                24 23 32 16 35 4 rrcurveto
                -6 721 -84 callsubr
                -100 callsubr
                150 hmoveto
                -83 callsubr
              </CharString>
              <CharString index="204">
                -19 callsubr
                119 207 callsubr
                231 -367 rmoveto
                210 100 -210 hlineto
                127 220 callsubr
                -47 83 -74 -68 65 -113 rlineto
                -100 -236 rmoveto
                233 callsubr
                -72 123 -56 -99 49 -85 28 callsubr
                55 96 56 99 24 41 -57 98 -158 -273 rlineto
                -18 -26 -10 -32 -34 vvcurveto
                -87 937 172 callsubr
              </CharString>
              <CharString index="205">
                115 231 rmoveto
                -5 2 -5 3 -5 2 rrcurveto
                762 -81 callsubr
                -820 -107 callsubr
                vlineto
                13 -6 12 -6 12 -7 19 27 26 23 33 20 rrcurveto
                -15 -192 rmoveto
                58 66 41 84 42 vhcurveto
                820 -81 callsubr
                -762 -107 callsubr
                vlineto
                -114 -53 -36 -86 -99 vvcurveto
                57 -45 41 -50 27 -55 27 55 41 50 57 45 rrcurveto
                55 -11 50 -29 43 vhcurveto
                -37 -21 -26 -19 -16 -18 rrcurveto
                12 -16 7 -17 -18 vvcurveto
                -6 -2 -5 -3 -4 vhcurveto
                -6 -4 -8 -4 -8 hhcurveto
                -8 -8 4 6 -4 hvcurveto
                -3 4 -2 5 6 vvcurveto
                50 941 -84 callsubr
                -18 callsubr
              </CharString>
              <CharString index="206">
                245 callsubr
                313 -100 hlineto
                300 -313 150 callsubr
                250 196 rmoveto
                104 vlineto
                42 -21 20 -40 vhcurveto
                -79 hlineto
                7 -25 0 -50 -7 -25 rrcurveto
                30 10 -10 -29 hvcurveto
                -27 vlineto
                -25 -446 rmoveto
                -104 callsubr
              </CharString>
              <CharString index="207">
                0 vmoveto
                -48 callsubr
                150 50 rmoveto
                100 42 -206 206 -44 -30 rlineto
                -68 vlineto
                42 vmoveto
                100 658 -81 callsubr
                hlineto
                100 -966 -107 callsubr
                rmoveto
                128 vlineto
                -100 30 rlineto
                -158 vlineto
                100 116 rmoveto
                150 150 rlineto
                68 vlineto
                -44 30 -206 -206 rlineto
                250 150 rmoveto
                658 -81 callsubr
                -658 -107 callsubr
                vlineto
                100 -308 rmoveto
                158 vlineto
                -100 -30 rlineto
                -128 vlineto
                -96 212 rmoveto
                71 -71 -7 -7 -71 71 rlineto
                85 85 rmoveto
                71 -71 -7 -7 -71 71 rlineto
                -25 663 -84 callsubr
                -100 callsubr
                150 hmoveto
                -83 callsubr
              </CharString>
              <CharString index="208">
                111 callsubr
                525 -400 rmoveto
                -104 callsubr
                -554 329 -89 callsubr
              </CharString>
              <CharString index="209">
                111 callsubr
                400 -180 rmoveto
                -103 callsubr
                -529 109 -89 callsubr
              </CharString>
              <CharString index="210">
                245 callsubr
                350 -100 hlineto
                300 -350 150 callsubr
                125 -250 rmoveto
                -104 callsubr
                125 480 -102 callsubr
              </CharString>
              <CharString index="211">
                109 callsubr
                40 116 rmoveto
                24 23 32 16 35 4 rrcurveto
                -3 callsubr
                29 49 41 101 15 vhcurveto
              </CharString>
              <CharString index="212">
                209 callsubr
                -119 -367 rmoveto
                560 100 -560 hlineto
                477 220 callsubr
                -34 61 -85 -50 63 -109 rlineto
                86 129 rmoveto
                -190 -328 rlineto
                333 hlineto
                -104 178 -56 -99 42 -73 rlineto
                -96 hlineto
                128 224 rlineto
                -330 670 172 callsubr
              </CharString>
              <CharString index="213">
                138 callsubr
                108 32 callsubr
              </CharString>
              <CharString index="214">
                125 388 rmoveto
                3 96 0 1 hhcurveto
                612 -81 callsubr
                vlineto
                150 hmoveto
                -612 -107 callsubr
                100 612 -84 callsubr
                vlineto
                -250 -662 -107 callsubr
                rmoveto
                258 callsubr
                70 -100 -20 vlineto
                -14 -11 -11 -14 -14 -11 11 14 vhcurveto
                20 -100 vlineto
                62 -308 rmoveto
                63 63 63 -63 rlineto
                -267 -100 rmoveto
                408 100 hlineto
                -151 151 -53 -52 -52 53 -152 -152 rlineto
                179 880 -84 callsubr
                -100 callsubr
                150 hmoveto
                -83 callsubr
              </CharString>
              <CharString index="215">
                106 callsubr
                100 -58 callsubr
                -31 callsubr
                550 -30 rmoveto
                -103 callsubr
                50 20 -93 callsubr
                -394 779 -86 callsubr
              </CharString>
              <CharString index="216">
                55 callsubr
                -290 -50 187 callsubr
                26 -6 24 -13 22 vhcurveto
                -41 -9 -36 -14 -21 -16 rrcurveto
                11 -12 6 -12 -10 vvcurveto
                -13 -11 -11 -14 -83 -67 -67 -83 vhcurveto
              </CharString>
              <CharString index="217">
                -82 callsubr
                -58 -150 27 callsubr
              </CharString>
              <CharString index="218">
                -82 callsubr
                -58 -150 -15 callsubr
              </CharString>
              <CharString index="219">
                100 -15 callsubr
                525 -400 rmoveto
                -104 callsubr
                -625 300 -90 callsubr
              </CharString>
              <CharString index="220">
                rmoveto
                -104 callsubr
                -828 hmoveto
                70 55 216 callsubr
                56 -57 69 vhcurveto
                -475 150 rmoveto
                -16 callsubr
              </CharString>
              <CharString index="221">
                250 -150 rmoveto
                -108 150 6 1 1 blend
                187 -1 44 -5 233 94 302 -23 201 1 -38 2 -91 -54 -197 29 -73 8 blend
                rrcurveto
                105 -12 -82 128 30 18 3 -31 4 blend
                -129 hhcurveto
                -140 83 callsubr
                8 16 28 31 39 3 84 7 50 -82 8 -59 28 -203 -92 -288 6 -244 4 -163 56 -1 -11 32 -9 -35 -30 78 51 197 -1 106 2 23 -2 14 blend
                -167 131 -51 rrcurveto
                -300 30 1 blend
                150 rmoveto
                290 -30 1 blend
                100 -290 30 1 blend
                hlineto
              </CharString>
              <CharString index="222">
                150 -150 -7 callsubr
                243 265 rmoveto
                66 callsubr
                rrcurveto
                -12 -100 350 82 callsubr
                -28 -10 -28 -22 -32 77 callsubr
                hvcurveto
                -393 -240 177 callsubr
              </CharString>
              <CharString index="223">
                179 callsubr
                54 105 -167 288 78 callsubr
                -432 -100 rmoveto
                -84 12 68 -66 99 hhcurveto
                98 68 73 90 34 -14 28 -17 30 hvcurveto
                -96 -32 rlineto
                21 -34 3 -13 -13 vvcurveto
                -47 -42 -32 -51 -6 vhcurveto
                -73 -9 -58 40 -18 41 rrcurveto
                129 526 -8 callsubr
              </CharString>
              <CharString index="224">
                100 -15 callsubr
                400 -180 rmoveto
                -103 callsubr
                -600 80 -90 callsubr
              </CharString>
              <CharString index="225">
                -15 388 121 callsubr
              </CharString>
              <CharString index="226">
                54 callsubr
                525 -400 rmoveto
                -104 callsubr
                -369 1029 -86 callsubr
              </CharString>
              <CharString index="227">
                -53 callsubr
                100 -75 144 callsubr
                -161 -242 -105 callsubr
              </CharString>
              <CharString index="228">
                2 blend
                rmoveto
                -2 12 -4 8 -13 5 6 11 -1 14 -7 11 -2 -14 -2 1 -1 2 -1 -2 -2 1 -2 1 -2 1 3 13 blend
                -6 -11 -21 -11 -25 -12 -10 -25 8 -27 1 4 2 4 2 2 4 -1 5 9 blend
                rrcurveto
                -16 -33 129 2 5 -21 3 blend
                hlineto
                -19 8 -14 20 22 2 -2 3 -2 -4 5 blend
                vvcurveto
                -9 -4 -9 -8 -11 1 1 1 2 2 5 blend
                hhcurveto
                -13 -12 12 13 14 12 11 13 9 8 2 3 -3 -1 -3 -3 -1 -2 -1 -2 10 blend
                -4 -7 1 1 blend
                4 hvcurveto
              </CharString>
              <CharString index="229">
                -23 callsubr
                600 -400 rmoveto
                -65 callsubr
                -675 530 -80 callsubr
              </CharString>
              <CharString index="230">
                -53 callsubr
                100 -75 149 callsubr
                -80 -125 -105 callsubr
              </CharString>
              <CharString index="231">
                -106 callsubr
                -350 -1350 -107 callsubr
                154 callsubr
              </CharString>
              <CharString index="232">
                -59 callsubr
                476 151 callsubr
                -148 -535 -105 callsubr
              </CharString>
              <CharString index="233">
                81 callsubr
                194 callsubr
                190 -330 rmoveto
                79 62 -192 331 78 callsubr
                -306 -240 rmoveto
                -5 12 26 -5 20 hhcurveto
                131 82 110 102 -58 hvcurveto
                -83 -55 29 -47 -25 -87 -134 -13 rlinecurve
                3 666 -8 callsubr
              </CharString>
              <CharString index="234">
                300 hmoveto
                150 -100 -150 210 callsubr
                150 -100 -21 callsubr
                150 -200 -75 callsubr
                100 -20 -102 callsubr
                -50 -50 -102 callsubr
                -50 -50 -102 callsubr
              </CharString>
              <CharString index="235">
                -48 callsubr
                376 -100 rmoveto
                58 100 -233 190 callsubr
                132 -230 rmoveto
                115 hlineto
                -170 293 -74 -68 rlineto
                303 -225 -38 callsubr
                -247 326 -8 callsubr
                -104 -435 -105 callsubr
              </CharString>
              <CharString index="236">
                -48 callsubr
                376 151 callsubr
                -48 -535 -105 callsubr
              </CharString>
              <CharString index="237">
                132 callsubr
                -24 callsubr
                150 -12 callsubr
              </CharString>
              <CharString index="238">
                -66 callsubr
                -64 callsubr
                -700 280 -80 callsubr
              </CharString>
              <CharString index="239">
                138 callsubr
                -42 -100 rmoveto
              </CharString>
              <CharString index="240">
                150 rmoveto
                140 hlineto
                285 285 -62 78 rlineto
                -421 -413 -39 callsubr
                108 32 callsubr
              </CharString>
              <CharString index="241">
                -23 callsubr
                600 -400 rmoveto
                -63 callsubr
                -650 310 -80 callsubr
              </CharString>
              <CharString index="242">
                58 100 -231 400 194 callsubr
                304 -230 218 callsubr
                -54 -585 rmoveto
                1072 hlineto
                58 100 rlineto
                -969 hlineto
                24 23 29 17 33 10 -162 280 rcurveline
                -80 -59 105 -183 -57 -47 -40 -66 -13 -75 rlinecurve
              </CharString>
              <CharString index="243">
                -23 callsubr
                600 -400 rmoveto
                -62 callsubr
                -700 280 -80 callsubr
              </CharString>
              <CharString index="244">
                -7 callsubr
                -300 100 rmoveto
                160 50 21 18 19 13 25 5 rlinecurve
                3 18 4 4 18 13 18 -13 4 -4 3 -18 25 -5 19 -13 184 callsubr
                48 61 -7 -26 55 hvcurveto
                22 27 26 24 29 20 -40 25 -47 18 -51 10 rrcurveto
              </CharString>
              <CharString index="245">
                150 rmoveto
                141 hlineto
                422 422 -103 39 rlineto
                -6 -72 rmoveto
                109 33 -321 321 -71 -70 rlineto
                -229 -723 -39 callsubr
              </CharString>
              <CharString index="246">
                237 callsubr
                -266 -238 rmoveto
                -100 576 vlineto
                -109 100 rlineto
                -62 133 211 callsubr
                -33 6 -31 12 -29 vhcurveto
                124 -21 196 callsubr
              </CharString>
              <CharString index="247">
                -75 callsubr
                -150 -180 rmoveto
                -103 callsubr
              </CharString>
              <CharString index="248">
                50 25 144 callsubr
              </CharString>
              <CharString index="249">
                263 callsubr
                -350 -800 rmoveto
                160 100 -10 hlineto
                -28 -22 22 28 -65 -42 -62 -58 -23 hvcurveto
                200 150 85 callsubr
                150 140 204 callsubr
                -210 -600 rmoveto
                -100 10 vlineto
                83 67 67 83 hvcurveto
                10 -100 -10 vlineto
                -28 -22 -22 -28 vhcurveto
              </CharString>
              <CharString index="250">
                50 25 149 callsubr
              </CharString>
              <CharString index="251">
                145 callsubr
                -125 169 callsubr
              </CharString>
              <CharString index="252">
                rmoveto
                10 100 -10 hlineto
                -100 -125 rmoveto
                -59 callsubr
                340 252 callsubr
                25 -10 vlineto
                -115</CharString>
              <CharString index="253">
                -53 callsubr
                -100 vmoveto
                -59 callsubr
                250 -50 -73 callsubr
                -80 -90 -105 callsubr
              </CharString>
              <CharString index="254">
                58 100 -231 190 callsubr
                276 -280 rmoveto
                -191 330 -80 -59 213 -371 rlineto
                854 hlineto
                58 100 rlineto
                -826 50 218 callsubr
              </CharString>
              <CharString index="255">
                165 -150 rmoveto
                86 75 56 94 3 hvcurveto
                3 96 -42 70 -60 84 rrcurveto
                -61 -14 -48 -36 -41 vhcurveto
                31 -18 20 -34 -39 vvcurveto
                -59 -47 -47 -59 -59 -47 47 59 vhcurveto
                -1 34 12 44 51 31 18 11 32 10 33 -5 rrcurveto
                16 -4 -16 11 -15 hhcurveto
                6 14 12 65 -70 11 44 -26 -8 -46 -26 -26 -8 -8 -9 -9 -9 -6 rrcurveto
                -45 -31 -16 -44 -40 vvcurveto
                -91 74 -74 91 vhcurveto
              </CharString>
              <CharString index="256">
                145 callsubr
                -25 170 callsubr
              </CharString>
              <CharString index="257">
                rmoveto
                260 callsubr
                -490 hmoveto
                262 callsubr
                250 hmoveto
                10 100 -10 vlineto
                -100 vmoveto
                -10 -100 10 vlineto
                110 180 rmoveto
                24 -18 16 -29 -33 vvcurveto
                -15 -3 -13 -6 -13 vhcurveto
                105 2 rlineto
                3 13 1 13 13 vvcurveto
                89 -59 76 -81 26 vhcurveto
                -260 -291 rmoveto
                100 100 hlineto
                33 16 29 24 18 vhcurveto
                111 vlineto
                -81 -26 -59 -76 -89 vvcurveto
              </CharString>
              <CharString index="258">
                -100 rmoveto
                179 callsubr
                115 hlineto
                -228 393 78 callsubr
                -303 426 -8 callsubr
              </CharString>
              <CharString index="259">
                71 callsubr
                800 100 vlineto
                192 callsubr
                -25 -400 rmoveto
                -104 callsubr
                -675 150 rmoveto
                100 1000 -106 callsubr
              </CharString>
              <CharString index="260">
                1 blend
                vmoveto
                -194 50 1 blend
                100 98 -50 1 blend
                vlineto
                -46 15 -37 36 -17 45 rrcurveto
                150 -94 rmoveto
                83 67 67 83 83 -67 67 -83 -14 -13 -2 -3 -13 hvcurveto
                -114 vlineto
                12 9 15 7 16 hhcurveto
                242 callsubr
                hvcurveto
                250 -140 1 blend
                -100 -250 140 1 blend
                vlineto
                -83 67 -67 83 vhcurveto
                -150 580</CharString>
              <CharString index="261">
                225 callsubr
                -50 rmoveto
                -55 callsubr
                -180 -1130 -101 callsubr
              </CharString>
              <CharString index="262">
                120 -150 rmoveto
                120 10 110 50 hvcurveto
                -100 hlineto
                -38 -13 -86 -137 1 vhcurveto
                -31 41 40 -6 39 hhcurveto
                -120 150 rmoveto
                -48 callsubr
                150 -60 41 callsubr
                -10 vmoveto
                201 callsubr
              </CharString>
              <CharString index="263">
                250 hmoveto
                50 -100 -50 -10 callsubr
                -100 50 -73 callsubr
              </CharString>
              <CharString index="264">
                263 callsubr
                -150 -650 85 callsubr
                -9 -650 rmoveto
                60 49 44 83 hvcurveto
                123 -100 -131 vlineto
                -77 -60 -21 -40 29 vhcurveto
                -30 20 33 -20 38 hhcurveto
                159 790 204 callsubr
              </CharString>
              <CharString index="265">
                -48 callsubr
                201 -100 rmoveto
                116 hlineto
                -238 408 234 callsubr
                250 -435 58 100 -232 400 rlineto
                -145 hlineto
                -73 -126 rlineto
                392 -374 -38 callsubr
                -356 -100 -105 callsubr
              </CharString>
              <CharString index="266">
                197 callsubr
                -184 575 rmoveto
                67 callsubr
                -7 -100</CharString>
              <CharString index="267">
                -82 callsubr
                -58 -150 -39 callsubr
                -42 -100 rmoveto
                -24 callsubr
                150 -12 callsubr
              </CharString>
              <CharString index="268">
                -50 hmoveto
                350 100 -350 38 callsubr
                0 vmoveto
                24 callsubr
              </CharString>
              <CharString index="269">
                rmoveto
                91 -100 -115 vlineto
                -107 vmoveto
                75 -67 175 174 -50 92 rlineto
                -50 -92 rmoveto
                100 115 -100 hlineto
                -150 -222 rmoveto
                -118 100 118 vlineto
                150 hmoveto
                -100 -23 rlineto
                -95 100 vlineto
                -250 225 rmoveto
                47 -47 71 71 -68 68 rlineto
                125 -266 rmoveto
                75 67 -47 46 -71 -70 rlineto
              </CharString>
              <CharString index="270">
                -74 callsubr
                350 -900 -60 callsubr
                -450 100 -94 callsubr
                106</CharString>
              <CharString index="271">
                31 callsubr
                250 -950 -11 callsubr
                -350</CharString>
              <CharString index="272">
                41 callsubr
                -25 -350 rmoveto
                -104 callsubr
                125 330 -102 callsubr
              </CharString>
              <CharString index="273">
                rmoveto
                100 260 -100 hlineto
                -25 -400 rmoveto
                -104 callsubr
                125 380 -102 callsubr
              </CharString>
              <CharString index="274">
                -74 callsubr
                300 -900 -29 callsubr
                -400 100 -94 callsubr
                106</CharString>
              <CharString index="275">
                hlineto
                50 vmoveto
                -40 callsubr
              </CharString>
              <CharString index="276">
                rmoveto
                69 56 56 69 69 -56 56 -69 -69 -56 -56 -69 -69 56 -56 69 hvcurveto
                100 vmoveto
                -14 -11 11 14 37 callsubr
                hvcurveto
                -44 132 rmoveto
                88 10 hlineto
                -13 4 -31 27 27 vvcurveto
                -27 -31 -27 -13 -4 vhcurveto
              </CharString>
              <CharString index="277">
                rmoveto
                -14 -11 11 14 37 callsubr
                hvcurveto
                -125 25 rmoveto
                -69 56 -56 69 69 56 56 69 13 -1 14 -8 25 vhcurveto
                -19 61 -65 45 -32 17 rrcurveto
                -26 -28 -26 -14 -5 vhcurveto
                -48 -17 -35 -47 -54 vvcurveto
              </CharString>
              <CharString index="278">
                150 51 rmoveto
                100 49 rlineto
                66 -73 60 -52 24 vhcurveto
                -5 -61 -10 -48 -35 -41 rrcurveto
                58 17 -27 -22 hvcurveto
                -100 -201 -7 callsubr
                -50 0 50 0 -38 -35 -86 -15 -26 hvcurveto
                200 50 -21 callsubr
              </CharString>
              <CharString index="279">
                rmoveto
                72 16 50 89 122 hhcurveto
                139 81 -114 -179 -6 hvcurveto
                -3 -103 -20 -108 -41 -102 61 -105 rcurveline
                49 91 54 163 187 vvcurveto
                219 -116 140 -156 -138 -92 -112 -138 vhcurveto
              </CharString>
              <CharString index="280">
                100 69 callsubr
              </CharString>
              <CharString index="281">
                55 39 64 77 vvcurveto
                93 -72 80 -88 vhcurveto
                -190 83 callsubr
                rrcurveto
                16 8 28 34 39 13 5 0 17 hhcurveto
                43 47 -31 -43 hvcurveto
                -64 -41 -51 -80 vvcurveto
                -45 12 -28 17 -18 vhcurveto
                -138 -90 rmoveto
              </CharString>
              <CharString index="282">
                -75 callsubr
                -400 -250 rmoveto
                -30 callsubr
                375 -250 rmoveto
                -104 callsubr
                -25</CharString>
              <CharString index="283">
                -9 callsubr
                -150 -850 rmoveto
                100 245 -100 hlineto
                150 -395 rmoveto
                31 callsubr
                -100 -750 43 callsubr
                86</CharString>
              <CharString index="284">
                rmoveto
                -69 57 -56 69 vhcurveto
                44 100 -46 248 callsubr
                46 100 -44 hlineto
                -69 -57 -55 -70 hvcurveto
                330 -125 -97 callsubr
              </CharString>
              <CharString index="285">
                150 -150 rmoveto
                83 67 67 83 hvcurveto
                100 -100 -100 235 callsubr
                vhcurveto
                150 230 -102 callsubr
              </CharString>
              <CharString index="286">
                81 callsubr
                195 callsubr
                190 -330 rmoveto
              </CharString>
              <CharString index="287">
                rmoveto
                850 -81 callsubr
                -850 -107 callsubr
                vlineto
                -100 100 43 callsubr
                80 730 -84 callsubr
                -100 callsubr
              </CharString>
              <CharString index="288">
                250 25 rmoveto
                96 -41 29 -59 100 vhcurveto
                -61 -24 -48 -36 -41 vhcurveto
                34 -7 26 -32 -36 vvcurveto
                -41 -34 -34 -41 -32 -32 21 29 -11 vhcurveto
                -7 -56 -15 -50 -28 -44 rrcurveto
                125 hlineto
                97 78 78 97 hvcurveto
              </CharString>
              <CharString index="289">
                rmoveto
                100 850 -81 callsubr
                hlineto
                -100 -750 -107 callsubr
                43 callsubr
                -20 730 74 callsubr
              </CharString>
              <CharString index="290">
                1 blend
                vmoveto
                150 hlineto
                28 22 -22 -28 -28 -22 -22 -28 hvcurveto
                -150 -200 80 1 blend
                100 100 -80 1 blend
                50 hlineto
                83 67 67 83 83 -67 67 -83 hvcurveto
                -50 100 -80 1 blend
                -100 hlineto
              </CharString>
              <CharString index="291">
                21 -18 160 -50 rcurveline
                108 -27 -106 80 -117 hhcurveto
                -117 -106 -80 -108 -27 hvcurveto
                169 175 rmoveto
                162 hlineto
                63 -81 2 60 -60 -81 -2 -63 vvcurveto
                -169 -175 rmoveto
              </CharString>
              <CharString index="292">
                215 callsubr
                338 -575 -97 callsubr
              </CharString>
              <CharString index="293">
                vlineto
                243 callsubr
                16 15 -7 -12 9 vhcurveto
                114 vlineto
                3 -13 -13 2 -14 hhcurveto
                39 callsubr
                150 580</CharString>
              <CharString index="294">
                rmoveto
                300 50 hlineto
                202 callsubr
                69 56 57 68</CharString>
              <CharString index="295">
                rmoveto
                115 hlineto
                -280 484 -66 113 -71 20 -96 -28 rlinecurve
                30 -27 18 -26 7 -40 17 8 33 3 17 -30 rrcurveto
                -172 -327 rmoveto
                453 100 -453 hlineto
              </CharString>
              <CharString index="296">
                -50 hmoveto
                365 100 -365 hlineto
                183 -100 -21 callsubr
                50 67 rmoveto
                -12 -10 10 12 12 10 10 12 12 10 -10 -12 -12 -10 -10 -12 hvcurveto
                -100 vmoveto
              </CharString>
              <CharString index="297">
                400 195 callsubr
              </CharString>
              <CharString index="298">
                150 -150 225 callsubr
              </CharString>
              <CharString index="299">
                -100 -250 -75 callsubr
              </CharString>
              <CharString index="300">
                200 -1 rmoveto
                96 -41 55 -59 100 vhcurveto
                -61 -14 -48 -36 -41 vhcurveto
                31 -32 14 -38 5 -30 13 -72 -50 -62 -63 -1 rrcurveto
                81 -43 119 55 122 vvcurveto
              </CharString>
              <CharString index="301">
                40 callsubr
                -55 -205 rmoveto
                5 -9 212 callsubr
              </CharString>
              <CharString index="302">
                -20 -23 -23 -23 -34 -19 rlinecurve
                -54 -205 223 callsubr
                -10 -5 -74 -37 -20 -96 40 -72 rlinecurve
              </CharString>
              <CharString index="303">
                rlineto
                -32 27 -20 41 46 vvcurveto
                81 74 66 80 3 vhcurveto
                -6 101 rmoveto
                -85 147 9 -62 -33 -67 -56 -33 rlinecurve
                0 43 25 25 -43 vhcurveto
                10 -17 rlineto
              </CharString>
              <CharString index="304">
                126 -150 rmoveto
                174 100 -176 248 callsubr
                126 100 -124 hlineto
                -69 -57 -55 -70 -69 57 -56 69 hvcurveto
              </CharString>
              <CharString index="305">
                -40 callsubr
                700 -100 rmoveto
                100</CharString>
              <CharString index="306">
                914 100 rmoveto
                -100 364 100 vlineto
                -778 hmoveto
                -100 364 100 vlineto
                150 -50 rmoveto
                -100 -200 hlineto
                85 24 15 66 60 vvcurveto
                -100 hmoveto
                100</CharString>
              <CharString index="307">
                -53 callsubr
                300 -100 rmoveto
              </CharString>
              <CharString index="308">
                261 callsubr
                -50 -160 rmoveto
                10 vlineto
                28 22 22 28 vhcurveto
                10 100 -10 hlineto
                -83 -67 -67 -83 hvcurveto
                -10 vlineto
              </CharString>
              <CharString index="309">
                38 -14 36 -24 26 vhcurveto
                -20 -29 -30 -21 -36 -7 rrcurveto
                15 -9 9 -16 -18 vvcurveto
                243 callsubr
              </CharString>
              <CharString index="310">
                hmoveto
                -170 hlineto
                58 -23 42 -62 -65 vvcurveto
                0 0 50 50 vhcurveto
                20 hlineto
              </CharString>
              <CharString index="311">
                rmoveto
                261 callsubr
                10 -100 rmoveto
                100 -10 vlineto
                -83 -67 -67 -83 hvcurveto
                -10 100 10 vlineto
                28 22 22 28 vhcurveto
              </CharString>
              <CharString index="312">
                -107 callsubr
                vlineto
                -91 -23 -59 -47 -85 vvcurveto
                -21 5 -21 10 -17 vhcurveto
                -1 143 rmoveto
                19 29 32 23 44 17 -9 2 rcurveline
              </CharString>
              <CharString index="313">
                259 callsubr
                500 rmoveto
                250 -100 -250 vlineto
                100 -600 rmoveto
                200 -100 -200 vlineto
                100</CharString>
              <CharString index="314">
                267 209 callsubr
              </CharString>
              <CharString index="315">
                -70 -55 -57 -69 hvcurveto
                -44 100 46 vlineto
                13 11 11 14 14 11 -11 -13 vhcurveto
                -46 100 44 vlineto
                69 -56 57 -69 vhcurveto
              </CharString>
              <CharString index="316">
                223 callsubr
                -9 -5 -72 -42 -23 -91 40 -72 rlinecurve
              </CharString>
              <CharString index="317">
                -10 callsubr
                -100 42 callsubr
              </CharString>
              <CharString index="318">
                246 callsubr
                94 278 rmoveto
                -62 83 rlineto
                -105 -30 -77 -88 -115 vvcurveto
              </CharString>
              <CharString index="319">
                227 callsubr
                -9 -5 -73 -40 -22 -93 40 -72 rlinecurve
              </CharString>
              <CharString index="320">
                50 hmoveto
                100 300 -100 hlineto
                550 vmoveto
                -20 callsubr
                -100 -900 -94 callsubr
              </CharString>
              <CharString index="321">
                -3 -3 -5 1 -8 3 -5 1 7 3 6 11 5 12 6 5 13 -4 13 24 blend
                rrcurveto
              </CharString>
              <CharString index="322">
                47 -18 vhcurveto
                79 callsubr
              </CharString>
              <CharString index="323">
                244 callsubr
                -14 -11 11 13 vhcurveto
                46 -100 -44 vlineto
                -69</CharString>
              <CharString index="324">
                rmoveto
                334 hlineto
                58 100 rlineto
                -450 hlineto
                170 -10 rmoveto
                110 hlineto
                -55 110 rlineto
              </CharString>
              <CharString index="325">
                -38 callsubr
                -245 326 -8 callsubr
              </CharString>
              <CharString index="326">
                -12 rmoveto
                126 hlineto
                -228 292 -95 -122 rlineto
                0 40 31 30 -39 vhcurveto
              </CharString>
              <CharString index="327">
                -56 rmoveto
                83 56 -310 537 40 callsubr
                69 -225 rmoveto
              </CharString>
              <CharString index="328">
                87 rmoveto
                127 1 -323 413 -97 -121 rlineto
                0 41 32 30 -41 vhcurveto
              </CharString>
              <CharString index="329">
                150 hmoveto
                500 hlineto
                1 100 rlineto
                -501 hlineto
                550 -110 rmoveto
                100</CharString>
              <CharString index="330">
                rmoveto
                5 -9 227 callsubr
              </CharString>
              <CharString index="331">
                220 vlineto
                -30 -68 -55 -52 -65 -30 rrcurveto
                3 47 -1 -49 hvcurveto
                -20 vlineto
              </CharString>
              <CharString index="332">
                rmoveto
                -30 callsubr
                200 -50 rmoveto
                -20 callsubr
                100</CharString>
              <CharString index="333">
                19 rmoveto
                214 370 rlineto
                -116 hlineto
                -184 -319 rlineto
              </CharString>
              <CharString index="334">
                85 50 -5 9 -13 24 6 33 25 11 rlinecurve
                11 5 -50 87</CharString>
              <CharString index="335">
                vlineto
                -25 7 -22 250 callsubr
              </CharString>
              <CharString index="336">
                vlineto
                236 callsubr
              </CharString>
              <CharString index="337">
                -4 7 -10 -11 5 blend
                vvcurveto
                -28 -10 -28 -22 -32 5 2</CharString>
              <CharString index="338">
                350 hmoveto
                -4 callsubr
                -300 -250 rmoveto
                100</CharString>
              <CharString index="339">
                rmoveto
                -50 vlineto
                -60 15 -69 85 -21 vhcurveto
                200 vlineto
                -50 vmoveto
              </CharString>
              <CharString index="340">
                -90 72 -73 90 90 73 73 90 34 -10 32 -18 26 vhcurveto
              </CharString>
              <CharString index="341">
                -8 -84 73 126 -87 -50 rlineto
                145 hlineto
                -76 35</CharString>
              <CharString index="342">
                vlineto
                256 callsubr
                67 -67 83</CharString>
              <CharString index="343">
                24 -7 23 -12 20 vhcurveto
                -21 -27 -31 -19 -35 -5 rrcurveto
              </CharString>
              <CharString index="344">
                411 hmoveto
                115 hlineto
                -228 396 -82 -58 rlineto
              </CharString>
              <CharString index="345">
                100 -20 vlineto
                -50 0 50 0 -65 -42 -62 -58 -23 hvcurveto
              </CharString>
              <CharString index="346">
                -150 hlineto
                -28 -22 22 28 28 22 22 28 hvcurveto
              </CharString>
              <CharString index="347">
                249 callsubr
                200</CharString>
              <CharString index="348">
                rmoveto
                -153 153 -71 -71 124 -124 rlineto
              </CharString>
              <CharString index="349">
                28 22 -22 -28 -28 -22 -22 -28 -28 -22 22 28</CharString>
              <CharString index="350">
                -28 -22 -22 -28 -28 -22 22 28 28 22 22 28</CharString>
              <CharString index="351">
                57 69 hvcurveto
                44 -100 -46 vlineto
                -13 -11 -11 -14</CharString>
              <CharString index="352">
                160 hmoveto
                -10 100 10 hlineto
                40 -100 rmoveto
                100</CharString>
              <CharString index="353">
                rmoveto
                -59 98 -191 -331 rlineto
                115 hlineto
              </CharString>
              <CharString index="354">
                rmoveto
                210 -100 -210 vlineto
              </CharString>
              <CharString index="355">
                hlineto
                -13 -11 11 14 14 11 11 13 hvcurveto
              </CharString>
              <CharString index="356">
                60 100 -10 hlineto
                -41 -20 -36 -30 -23 vhcurveto
              </CharString>
              <CharString index="357">
                12 -20 vhcurveto
                21 27 31 19 35 5 rrcurveto
              </CharString>
              <CharString index="358">
                -50 hmoveto
                126 100 -126 hlineto
                225</CharString>
              <CharString index="359">
                -100 rmoveto
                60 hlineto
                -30 23 -20 36 41 vvcurveto
              </CharString>
              <CharString index="360">
                vlineto
                -14 -11 -11 -14 -69 -56 -56 -69</CharString>
              <CharString index="361">
                vlineto
                14 11 11 14 69 56 56 69</CharString>
              <CharString index="362">
                rmoveto
                -17 -45 -37 -36 -46 -15 rrcurveto
                -98</CharString>
              <CharString index="363">
                -55 -45 -45 -55 -55 -45 45 55 -83</CharString>
              <CharString index="364">
                71 71 -99 99 -177 -177 rlineto
              </CharString>
              <CharString index="365">
                125 -125 125 125 rlineto
              </CharString>
              <CharString index="366">
                250 vmoveto
                -100 230 100 vlineto
                80</CharString>
              <CharString index="367">
                -30 23 -20 36 41 vvcurveto
                -10 -100 hlineto
              </CharString>
              <CharString index="368">
                100 60 hlineto
                -30 -23 -36 -20 -41 hhcurveto
              </CharString>
              <CharString index="369">
                500 100 -500 hlineto
              </CharString>
              <CharString index="370">
                100 650 -100 hlineto
              </CharString>
        <CharString name=".notdef">
          0 vmoveto
          300 600 -300 hlineto
          50 -550 rmoveto
          500 200 -500 vlineto
          -7 537 rmoveto
          -222 -557 46 -19 223 557 rlineto
          -222 19 rmoveto
          -47 -19 223 -557 46 19 rlineto
        </CharString>
        <CharString name="glyph00003">
          0 vmoveto
          488 -82 1 blend
          hlineto
          -58 23 -42 62 65 10 230 callsubr
          4 4 6 5 blend
          77 callsubr
          7 5 -6 -7 -7 -5 -5 -7 -5 -4 2 4 -2 13 blend
          hvcurveto
          -6 37 -12 23 -39 15 16 33 -3 43 -19 34 -6 -42 -19 -35 -64 -32 -74 -37 -30 -75 25 -79 1 -7 2 -3 7 214 callsubr
          -17 -23 22 28 -10 3 3 -4 -5 2 5 blend
          hvcurveto
          -65 -42 -62 -58 -23 11 7 10 10 4 5 blend
          vhcurveto
        </CharString>
        <CharString name="glyph00004">
          50 67 rmoveto
          136 hlineto
          -10 -43 -47 -9 -52 8 rrcurveto
          -23 21 29 -14 34 hhcurveto
          63 51 51 63 hvcurveto
          33 -136 vlineto
          10 43 47 9 52 -8 rrcurveto
          23 -21 -29 14 -34 hhcurveto
          -63 -51 -51 -63 hvcurveto
        </CharString>
        <CharString name="glyph00006">
          44 callsubr
          vmoveto
          -36 callsubr
        </CharString>
        <CharString name="glyph00007">
          0 vmoveto
          21 callsubr
        </CharString>
        <CharString name="glyph00008">
          850 vmoveto
          -28 callsubr
        </CharString>
        <CharString name="glyph00009">
          100 hmoveto
          -55 callsubr
        </CharString>
        <CharString name="glyph00010">
          100 750 -50 callsubr
        </CharString>
        <CharString name="glyph00011">
          100 hmoveto
          -47 callsubr
        </CharString>
        <CharString name="glyph00012">
          100 850 rmoveto
          150 -100 -150 vlineto
          100 -850 rmoveto
          300 -100 -300 vlineto
          100 787 rmoveto
          140 -100 -140 vlineto
          100 -564 rmoveto
          140 -100 -140 vlineto
          29 635 rmoveto
          -99 -99 71 -71 99 99 rlineto
          -194 -18 rmoveto
          -49 49 -79 -1 -49 -48 -50 -49 1 -79 49 -49 10 -10 rcurveline
          71 71 -11 11 -9 9 -1 16 10 10 rlinecurve
          10 10 15 -1 10 -9 125 -124 rcurveline
          -29 -28 71 -71 99 99 rlineto
          -371 -17 rmoveto
          -49 -49 1 -79 48 -49 49 -50 79 1 49 49 10 10 rcurveline
          -71 71 -11 -11 -10 -10 -15 -1 -10 11 rlinecurve
          -9 10 0 16 9 9 117 117 rcurveline
          -71 71 rlineto
          184 -382 rmoveto
          71 71 -205 205 -71 -71 rlineto
          276 483 -100 callsubr
        </CharString>
        <CharString name="glyph00013">
          0 vmoveto
          68 callsubr
          -80 -80 -49 callsubr
        </CharString>
        <CharString name="glyph00014">
          33 callsubr
          hmoveto
          68 callsubr
        </CharString>
        <CharString name="glyph00015">
          0 vmoveto
          68 callsubr
        </CharString>
        <CharString name="glyph00016">
          36 callsubr
          hmoveto
          100 1000 -106 callsubr
          130 -45 callsubr
        </CharString>
        <CharString name="glyph00017">
          200 100 -60 callsubr
          -200 hmoveto
          100 1000 -106 callsubr
          180 -45 callsubr
        </CharString>
        <CharString name="glyph00018">
          44 callsubr
          vmoveto
          -36 callsubr
          80 -45 callsubr
          -80 -80 -49 callsubr
        </CharString>
        <CharString name="glyph00019">
          33 callsubr
          750 46 callsubr
          -36 callsubr
          80 -45 callsubr
        </CharString>
        <CharString name="glyph00020">
          44 callsubr
          vmoveto
          -36 callsubr
          80 -45 callsubr
        </CharString>
        <CharString name="glyph00021">
          36 callsubr
          750 46 callsubr
          -36 callsubr
          130 -45 callsubr
        </CharString>
        <CharString name="glyph00022">
          200 100 -60 callsubr
          -200 750 46 callsubr
          -36 callsubr
          180 -45 callsubr
        </CharString>
        <CharString name="glyph00023">
          0 vmoveto
          21 callsubr
          80 -800 280 1 blend
          -97 callsubr
          -80 -80 -49 callsubr
        </CharString>
        <CharString name="glyph00024">
          33 callsubr
          20 callsubr
          80 -800 280 1 blend
          -97 callsubr
        </CharString>
        <CharString name="glyph00025">
          0 vmoveto
          21 callsubr
          80 -800 280 1 blend
          -97 callsubr
        </CharString>
        <CharString name="glyph00026">
          36 callsubr
          20 callsubr
          130 -800 280 1 blend
          -97 callsubr
        </CharString>
        <CharString name="glyph00027">
          200 100 -60 callsubr
          -200 20 callsubr
          180 -800 280 1 blend
          -97 callsubr
        </CharString>
        <CharString name="glyph00028">
          20 vmoveto
          75 callsubr
          -100 830 rmoveto
          -28 callsubr
          80 -1200 -97 callsubr
        </CharString>
        <CharString name="glyph00029">
          33 callsubr
          850 rmoveto
          -28 callsubr
          80 -1200 -97 callsubr
        </CharString>
        <CharString name="glyph00030">
          850 vmoveto
          -28 callsubr
          80 -1200 -97 callsubr
        </CharString>
        <CharString name="glyph00031">
          36 callsubr
          850 rmoveto
          -28 callsubr
          130 -1200 -97 callsubr
        </CharString>
        <CharString name="glyph00032">
          200 100 -60 callsubr
          -20 hmoveto
          170 -6 callsubr
          0 -50 -50 vhcurveto
          -20 hlineto
          -180 750 rmoveto
          -28 callsubr
        </CharString>
        <CharString name="glyph00033">
          100 hmoveto
          -55 callsubr
          100 -980 -107 callsubr
          -97 callsubr
        </CharString>
        <CharString name="glyph00034">
          150 100 -29 callsubr
          -50 hmoveto
          -55 callsubr
          130 -980 -107 callsubr
          -97 callsubr
        </CharString>
        <CharString name="glyph00035">
          200 100 -60 callsubr
          -100 hmoveto
          -55 callsubr
          180 -980 -107 callsubr
          -97 callsubr
        </CharString>
        <CharString name="glyph00039">
          150 hmoveto
          500 hlineto
          1 100 rlineto
          -501 hlineto
          550 -110 166 callsubr
          -530 -230 -105 callsubr
        </CharString>
        <CharString name="glyph00040">
          222 callsubr
          260 -100 hlineto
          -150 -180 rmoveto
          -103 callsubr
          150 160 -102 callsubr
          -530 -230 -105 callsubr
        </CharString>
        <CharString name="glyph00041">
          150 hmoveto
          650 200 -100 -100 -550 hlineto
          20 -100 -105 callsubr
          800 180 -102 callsubr
        </CharString>
        <CharString name="glyph00042">
          150 hmoveto
          500 hlineto
          1 100 rlineto
          -501 hlineto
          550 -110 165 callsubr
          -530 -180 -105 callsubr
        </CharString>
        <CharString name="glyph00043">
          222 callsubr
          210 -100 hlineto
          -150 -130 rmoveto
          -103 callsubr
          150 110 -102 callsubr
          -530 -180 -105 callsubr
        </CharString>
        <CharString name="glyph00044">
          -50 hmoveto
          200 250 -100 -150 -100 hlineto
          200 130 -102 callsubr
        </CharString>
        <CharString name="glyph00045">
          50 -10 166 callsubr
        </CharString>
        <CharString name="glyph00046">
          50 -10 rmoveto
          100 260 -100 hlineto
          -150 -180 rmoveto
          -103 callsubr
          150 160 -102 callsubr
        </CharString>
        <CharString name="glyph00047">
          -196 316 rmoveto
          100 -70 rlineto
          220 -100 vlineto
          100 -20 -102 callsubr
        </CharString>
        <CharString name="glyph00048">
          -50 hmoveto
          200 200 -100 -100 -100 hlineto
          200 80 -102 callsubr
        </CharString>
        <CharString name="glyph00049">
          50 -10 165 callsubr
        </CharString>
        <CharString name="glyph00050">
          50 -10 41 callsubr
          -150 -130 rmoveto
          -103 callsubr
          150 110 -102 callsubr
        </CharString>
        <CharString name="glyph00056">
          159 callsubr
          515 -6 callsubr
          -17 -55 -133 -174 -34 113 185 callsubr
        </CharString>
        <CharString name="glyph00057">
          197 callsubr
          244 150 rmoveto
          100 vlineto
          -79 -54 108 47 -18 hvcurveto
          79 callsubr
          67 callsubr
          -7 -100 hlineto
          100 -150 -97 callsubr
        </CharString>
        <CharString name="glyph00058">
          88 90 rmoveto
          151 hlineto
          -47 11 -31 26 54 174 callsubr
          -48 callsubr
        </CharString>
        <CharString name="glyph00059">
          428 hmoveto
          100 vlineto
          -79 -54 108 47 -18 hvcurveto
          79 callsubr
          67 callsubr
          -295 -100 hlineto
        </CharString>
        <CharString name="glyph00060">
          398 -150 188 callsubr
        </CharString>
        <CharString name="glyph00061">
          114 callsubr
        </CharString>
        <CharString name="glyph00062">
          200 hmoveto
          100 100 -100 hlineto
          -112 -10 rmoveto
          151 hlineto
          -47 11 -31 26 54 174 callsubr
          250 100 -250 hlineto
          330 -100 -97 callsubr
        </CharString>
        <CharString name="glyph00063">
          425 vmoveto
          30 -27 21 -33 7 -40 rrcurveto
          17 10 15 8 14 hhcurveto
          22 15 -8 -23 11 hvcurveto
          6 -12 25 -70 7 -18 16 -40 22 -42 24 -37 rrcurveto
          -295 -100 658 -6 callsubr
          -16 -50 -65 -79 -53 108 215 callsubr
        </CharString>
        <CharString name="glyph00064">
          366 100 rmoveto
          -100 110 100 vlineto
          -20 -100 -97 callsubr
          -58 -250 188 callsubr
        </CharString>
        <CharString name="glyph00065">
          114 callsubr
          280 -30 1 blend
          -100 -97 callsubr
        </CharString>
        <CharString name="glyph00066">
          88 90 rmoveto
          142 10 rlineto
          -34 -35 27 54 hvcurveto
          55 39 64 77 vvcurveto
          93 -72 80 -88 vhcurveto
          -190 83 callsubr
          rrcurveto
          16 8 28 34 39 13 5 0 17 hhcurveto
          43 47 -31 -43 hvcurveto
          -64 -41 -51 -80 vvcurveto
          -45 12 -28 17 -18 vhcurveto
          -138 -90 rmoveto
          280 100 -280 hlineto
          260 -100 -97 callsubr
        </CharString>
        <CharString name="glyph00069">
          -66 callsubr
          -67 callsubr
          -675 530 -80 callsubr
        </CharString>
        <CharString name="glyph00070">
          -66 callsubr
          -85 callsubr
          -100 -70 -95 callsubr
          -550 105 -80 callsubr
        </CharString>
        <CharString name="glyph00071">
          -66 callsubr
          -77 callsubr
          -650 310 -80 callsubr
        </CharString>
        <CharString name="glyph00072">
          -66 callsubr
          -76 callsubr
          -700 280 -80 callsubr
        </CharString>
        <CharString name="glyph00073">
          122 callsubr
        </CharString>
        <CharString name="glyph00074">
          134 callsubr
        </CharString>
        <CharString name="glyph00075">
          -66 callsubr
          -68 callsubr
          -550 105 -80 callsubr
        </CharString>
        <CharString name="glyph00076">
          -23 callsubr
          -100 -250 rmoveto
          -69 callsubr
          -675 -20 -80 callsubr
        </CharString>
        <CharString name="glyph00077">
          136 callsubr
        </CharString>
        <CharString name="glyph00078">
          131 callsubr
        </CharString>
        <CharString name="glyph00079">
          -66 callsubr
          -76 callsubr
          -700 -80 -49 callsubr
          -100 360 -80 callsubr
        </CharString>
        <CharString name="glyph00080">
          53 callsubr
          -530 -99 callsubr
        </CharString>
        <CharString name="glyph00081">
          -66 callsubr
          -67 callsubr
          -675 530 -80 callsubr
          -530 -99 callsubr
        </CharString>
        <CharString name="glyph00082">
          -66 callsubr
          -85 callsubr
          -100 -70 -95 callsubr
          -550 105 -80 callsubr
          -530 -99 callsubr
        </CharString>
        <CharString name="glyph00083">
          -66 callsubr
          -77 callsubr
          -650 310 -80 callsubr
          -530 -99 callsubr
        </CharString>
        <CharString name="glyph00084">
          122 callsubr
          -530 -99 callsubr
        </CharString>
        <CharString name="glyph00085">
          134 callsubr
          -530 -99 callsubr
        </CharString>
        <CharString name="glyph00086">
          -66 callsubr
          -68 callsubr
          -550 105 -80 callsubr
          -530 -99 callsubr
        </CharString>
        <CharString name="glyph00087">
          -23 callsubr
          -100 -250 rmoveto
          -69 callsubr
          -675 -20 -80 callsubr
          -530 -99 callsubr
        </CharString>
        <CharString name="glyph00088">
          136 callsubr
          -530 -99 callsubr
        </CharString>
        <CharString name="glyph00089">
          131 callsubr
          -530 -99 callsubr
        </CharString>
        <CharString name="glyph00090">
          0 vmoveto
          -72 callsubr
          -200 rmoveto
          100 800 -106 callsubr
        </CharString>
        <CharString name="glyph00091">
          0 vmoveto
          -67 callsubr
          -675 350 rmoveto
          100 800 -106 callsubr
        </CharString>
        <CharString name="glyph00092">
          0 vmoveto
          -85 callsubr
          -100 -70 -95 callsubr
          -550 -75 rmoveto
          100 800 -106 callsubr
        </CharString>
        <CharString name="glyph00093">
          0 vmoveto
          -77 callsubr
          -650 130 rmoveto
          100 800 -106 callsubr
        </CharString>
        <CharString name="glyph00094">
          0 vmoveto
          -76 callsubr
          -700 100 rmoveto
          100 800 -106 callsubr
        </CharString>
        <CharString name="glyph00095">
          700 hmoveto
          -65 callsubr
          -675 350 rmoveto
          100 800 -106 callsubr
        </CharString>
        <CharString name="glyph00096">
          700 hmoveto
          -63 callsubr
          -650 130 rmoveto
          100 800 -106 callsubr
        </CharString>
        <CharString name="glyph00097">
          0 vmoveto
          -68 callsubr
          -550 -75 rmoveto
          100 800 -106 callsubr
        </CharString>
        <CharString name="glyph00098">
          150 vmoveto
          -69 callsubr
          -675 -200 rmoveto
          100 800 -106 callsubr
        </CharString>
        <CharString name="glyph00099">
          700 hmoveto
          -62 callsubr
          -700 100 rmoveto
          100 800 -106 callsubr
        </CharString>
        <CharString name="glyph00100">
          0 vmoveto
          -64 callsubr
          -700 100 rmoveto
          100 800 -106 callsubr
        </CharString>
        <CharString name="glyph00101">
          0 vmoveto
          -72 callsubr
          -200 rmoveto
          100 800 -106 callsubr
          -1180 -107 callsubr
          -99 callsubr
        </CharString>
        <CharString name="glyph00102">
          0 vmoveto
          -67 callsubr
          -675 350 rmoveto
          100 800 -106 callsubr
          -1180 -107 callsubr
          -99 callsubr
        </CharString>
        <CharString name="glyph00103">
          0 vmoveto
          -85 callsubr
          -100 -70 -95 callsubr
          -550 -75 rmoveto
          100 800 -106 callsubr
          -1180 -107 callsubr
          -99 callsubr
        </CharString>
        <CharString name="glyph00104">
          0 vmoveto
          -77 callsubr
          -650 130 rmoveto
          100 800 -106 callsubr
          -1180 -107 callsubr
          -99 callsubr
        </CharString>
        <CharString name="glyph00105">
          0 vmoveto
          -76 callsubr
          -700 100 rmoveto
          100 800 -106 callsubr
          -1180 -107 callsubr
          -99 callsubr
        </CharString>
        <CharString name="glyph00106">
          700 hmoveto
          -65 callsubr
          -675 350 rmoveto
          100 800 -106 callsubr
          -1180 -107 callsubr
          -99 callsubr
        </CharString>
        <CharString name="glyph00107">
          700 hmoveto
          -63 callsubr
          -650 130 rmoveto
          100 800 -106 callsubr
          -1180 -107 callsubr
          -99 callsubr
        </CharString>
        <CharString name="glyph00108">
          0 vmoveto
          -68 callsubr
          -550 -75 rmoveto
          100 800 -106 callsubr
          -1180 -107 callsubr
          -99 callsubr
        </CharString>
        <CharString name="glyph00109">
          150 vmoveto
          -69 callsubr
          -675 -200 rmoveto
          100 800 -106 callsubr
          -1180 -107 callsubr
          -99 callsubr
        </CharString>
        <CharString name="glyph00110">
          700 hmoveto
          -62 callsubr
          -700 100 rmoveto
          100 800 -106 callsubr
          -1180 -107 callsubr
          -99 callsubr
        </CharString>
        <CharString name="glyph00111">
          0 vmoveto
          -64 callsubr
          -700 100 rmoveto
          100 800 -106 callsubr
          -1180 -107 callsubr
          -99 callsubr
        </CharString>
        <CharString name="glyph00112">
          0 vmoveto
          -72 callsubr
          -200 -92 callsubr
        </CharString>
        <CharString name="glyph00113">
          0 vmoveto
          -67 callsubr
          -675 350 -92 callsubr
        </CharString>
        <CharString name="glyph00114">
          0 vmoveto
          -85 callsubr
          -100 -70 -95 callsubr
          -550 -75 -92 callsubr
        </CharString>
        <CharString name="glyph00115">
          0 vmoveto
          -77 callsubr
          -650 130 -92 callsubr
        </CharString>
        <CharString name="glyph00116">
          0 vmoveto
          -76 callsubr
          -700 100 -92 callsubr
        </CharString>
        <CharString name="glyph00117">
          700 hmoveto
          -65 callsubr
          -675 350 -92 callsubr
        </CharString>
        <CharString name="glyph00118">
          700 hmoveto
          -63 callsubr
          -650 130 -92 callsubr
        </CharString>
        <CharString name="glyph00119">
          0 vmoveto
          -68 callsubr
          -550 -75 -92 callsubr
        </CharString>
        <CharString name="glyph00120">
          150 vmoveto
          -69 callsubr
          -675 -200 -92 callsubr
        </CharString>
        <CharString name="glyph00121">
          700 hmoveto
          -62 callsubr
          -700 100 -92 callsubr
        </CharString>
        <CharString name="glyph00122">
          0 vmoveto
          -64 callsubr
          -700 100 -92 callsubr
        </CharString>
        <CharString name="glyph00123">
          0 vmoveto
          -72 callsubr
          -200 -92 callsubr
          -1180 -107 callsubr
          -99 callsubr
        </CharString>
        <CharString name="glyph00124">
          0 vmoveto
          -67 callsubr
          -675 350 -92 callsubr
          -1180 -107 callsubr
          -99 callsubr
        </CharString>
        <CharString name="glyph00125">
          0 vmoveto
          -85 callsubr
          -100 -70 -95 callsubr
          -550 -75 -92 callsubr
          -1180 -107 callsubr
          -99 callsubr
        </CharString>
        <CharString name="glyph00126">
          0 vmoveto
          -77 callsubr
          -650 130 -92 callsubr
          -1180 -107 callsubr
          -99 callsubr
        </CharString>
        <CharString name="glyph00127">
          0 vmoveto
          -76 callsubr
          -700 100 -92 callsubr
          -1180 -107 callsubr
          -99 callsubr
        </CharString>
        <CharString name="glyph00128">
          700 hmoveto
          -65 callsubr
          -675 350 -92 callsubr
          -1180 -107 callsubr
          -99 callsubr
        </CharString>
        <CharString name="glyph00129">
          700 hmoveto
          -63 callsubr
          -650 130 -92 callsubr
          -1180 -107 callsubr
          -99 callsubr
        </CharString>
        <CharString name="glyph00130">
          0 vmoveto
          -68 callsubr
          -550 -75 -92 callsubr
          -1180 -107 callsubr
          -99 callsubr
        </CharString>
        <CharString name="glyph00131">
          150 vmoveto
          -69 callsubr
          -675 -200 -92 callsubr
          -1180 -107 callsubr
          -99 callsubr
        </CharString>
        <CharString name="glyph00132">
          700 hmoveto
          -62 callsubr
          -700 100 -92 callsubr
          -1180 -107 callsubr
          -99 callsubr
        </CharString>
        <CharString name="glyph00133">
          0 vmoveto
          -64 callsubr
          -700 100 -92 callsubr
          -1180 -107 callsubr
          -99 callsubr
        </CharString>
        <CharString name="glyph00134">
          0 vmoveto
          -72 callsubr
          350 -91 callsubr
        </CharString>
        <CharString name="glyph00135">
          0 vmoveto
          -67 callsubr
          -675 900 -91 callsubr
        </CharString>
        <CharString name="glyph00136">
          0 vmoveto
          -85 callsubr
          -100 -70 -95 callsubr
          -550 475 -91 callsubr
        </CharString>
        <CharString name="glyph00137">
          0 vmoveto
          -77 callsubr
          -650 680 -91 callsubr
        </CharString>
        <CharString name="glyph00138">
          0 vmoveto
          -76 callsubr
          -700 650 -91 callsubr
        </CharString>
        <CharString name="glyph00139">
          700 hmoveto
          -65 callsubr
          -675 900 -91 callsubr
        </CharString>
        <CharString name="glyph00140">
          700 hmoveto
          -63 callsubr
          -650 680 -91 callsubr
        </CharString>
        <CharString name="glyph00141">
          0 vmoveto
          -68 callsubr
          -550 475 -91 callsubr
        </CharString>
        <CharString name="glyph00142">
          150 vmoveto
          -69 callsubr
          -675 350 -91 callsubr
        </CharString>
        <CharString name="glyph00143">
          700 hmoveto
          -62 callsubr
          -700 650 -91 callsubr
        </CharString>
        <CharString name="glyph00144">
          0 vmoveto
          -64 callsubr
          -700 650 -91 callsubr
        </CharString>
        <CharString name="glyph00145">
          0 vmoveto
          -72 callsubr
          350 -91 callsubr
          -1180 -107 callsubr
          -99 callsubr
        </CharString>
        <CharString name="glyph00146">
          0 vmoveto
          -67 callsubr
          -675 900 -91 callsubr
          -1180 -107 callsubr
          -99 callsubr
        </CharString>
        <CharString name="glyph00147">
          0 vmoveto
          -85 callsubr
          -100 -70 -95 callsubr
          -550 475 -91 callsubr
          -1180 -107 callsubr
          -99 callsubr
        </CharString>
        <CharString name="glyph00148">
          0 vmoveto
          -77 callsubr
          -650 680 -91 callsubr
          -1180 -107 callsubr
          -99 callsubr
        </CharString>
        <CharString name="glyph00149">
          0 vmoveto
          -76 callsubr
          -700 650 -91 callsubr
          -1180 -107 callsubr
          -99 callsubr
        </CharString>
        <CharString name="glyph00150">
          700 hmoveto
          -65 callsubr
          -675 900 -91 callsubr
          -1180 -107 callsubr
          -99 callsubr
        </CharString>
        <CharString name="glyph00151">
          700 hmoveto
          -63 callsubr
          -650 680 -91 callsubr
          -1180 -107 callsubr
          -99 callsubr
        </CharString>
        <CharString name="glyph00152">
          0 vmoveto
          -68 callsubr
          -550 475 -91 callsubr
          -1180 -107 callsubr
          -99 callsubr
        </CharString>
        <CharString name="glyph00153">
          150 vmoveto
          -69 callsubr
          -675 350 -91 callsubr
          -1180 -107 callsubr
          -99 callsubr
        </CharString>
        <CharString name="glyph00154">
          700 hmoveto
          -62 callsubr
          -700 650 -91 callsubr
          -1180 -107 callsubr
          -99 callsubr
        </CharString>
        <CharString name="glyph00155">
          0 vmoveto
          -64 callsubr
          -700 650 -91 callsubr
          -1180 -107 callsubr
          -99 callsubr
        </CharString>
        <CharString name="glyph00158">
          193 callsubr
        </CharString>
        <CharString name="glyph00159">
          56 callsubr
        </CharString>
        <CharString name="glyph00160">
          193 callsubr
          -77 101 rmoveto
          -100 64 100 vlineto
        </CharString>
        <CharString name="glyph00161">
          -30 -123 rmoveto
          53 -41 76 -1 55 44 66 51 10 93 -50 66 -55 71 rcurveline
          -79 -61 55 -71 34 -44 -7 -63 -44 -34 rlinecurve
          -32 -25 -47 -2 -35 17 rrcurveto
          188 240 rmoveto
          -104 134 17 -60 -23 -71 -51 -40 rlinecurve
          0 39 31 31 -40 vhcurveto
          13 -15 rlineto
        </CharString>
        <CharString name="glyph00164">
          200 42 callsubr
          150 -100 rmoveto
          76 callsubr
          -200 -250 rmoveto
          250 -100 -250 -10 callsubr
          300 230 25 callsubr
          -50 hmoveto
          -43 callsubr
        </CharString>
        <CharString name="glyph00165">
          300 hmoveto
          316 vlineto
          29 callsubr
          -250 210 callsubr
        </CharString>
        <CharString name="glyph00166">
          513 221 callsubr
          -81 -371 rmoveto
          421 100 -421 hlineto
          112 219 callsubr
          105 -250 rmoveto
          90 -100 -90 -10 callsubr
          -73 -34 rmoveto
          62 82 -164 210 -94 -121 rlineto
          0 39 30 30 -39 vhcurveto
          95 -121 4 -5 1 -5 -1 -11 rlinecurve
        </CharString>
        <CharString name="glyph00167">
          231 callsubr
          150 -100 hlineto
          -100 -150 rmoveto
          500 100 -500 38 callsubr
          250 30 rmoveto
          -43 callsubr
          -50 -50 -102 callsubr
          -50 -50 -102 callsubr
        </CharString>
        <CharString name="glyph00168">
          231 callsubr
          250 -100 hlineto
          -100 -250 -22 callsubr
          250 -100 -75 callsubr
          250 -20 25 callsubr
          -50 hmoveto
          -43 callsubr
        </CharString>
        <CharString name="glyph00169">
          50 hmoveto
          100 316 hlineto
          29 callsubr
          -100 -250 -22 callsubr
        </CharString>
        <CharString name="glyph00170">
          50 hmoveto
          -20 callsubr
          150 -150 -21 callsubr
          150 -200 175 callsubr
          330 -102 callsubr
          -50 -50 -102 callsubr
          400 100 -102 callsubr
        </CharString>
        <CharString name="glyph00171">
          50 hmoveto
          76 callsubr
          150 -250 175 callsubr
          380 25 callsubr
          400 hmoveto
          -43 callsubr
        </CharString>
        <CharString name="glyph00172">
          50 hmoveto
          100 316 hlineto
          29 callsubr
          -100 -250 rmoveto
          -30 callsubr
          375 -250 rmoveto
          -104 callsubr
        </CharString>
        <CharString name="glyph00173">
          50 hmoveto
          -20 callsubr
          150 -150 -21 callsubr
          150 -200 -75 callsubr
          -400 -250 rmoveto
          -19 callsubr
          280 -100 rmoveto
          220 100 -220 hlineto
          -55 -250 rmoveto
          -104 callsubr
          125 330 -102 callsubr
          -50 -50 -102 callsubr
          400 100 -102 callsubr
        </CharString>
        <CharString name="glyph00174">
          50 hmoveto
          76 callsubr
          150 -250 -75 callsubr
          -400 -250 rmoveto
          -19 callsubr
          280 -100 rmoveto
          220 100 -220 hlineto
          -55 -250 rmoveto
          -104 callsubr
          125 380 25 callsubr
          400 hmoveto
          -43 callsubr
        </CharString>
        <CharString name="glyph00175">
          50 hmoveto
          100 316 hlineto
          29 callsubr
          -100 -250 rmoveto
          -19 callsubr
          280 -100 rmoveto
          220 100 -220 hlineto
          -55 -250 rmoveto
          -104 callsubr
        </CharString>
        <CharString name="glyph00176">
          483 221 callsubr
          -159 -283 rmoveto
          126 hlineto
          -133 170 -94 -122 rlineto
          0 39 30 31 -39 vhcurveto
          -71 -127 rmoveto
          601 100 -601 hlineto
          292 219 callsubr
        </CharString>
        <CharString name="glyph00179">
          -46 callsubr
          -67 callsubr
          -575 380 -102 callsubr
        </CharString>
        <CharString name="glyph00180">
          -46 callsubr
          -85 callsubr
          -100 -70 -95 callsubr
          -450 -45 -102 callsubr
        </CharString>
        <CharString name="glyph00181">
          -46 callsubr
          -77 callsubr
          -550 160 -102 callsubr
        </CharString>
        <CharString name="glyph00182">
          -46 callsubr
          -76 callsubr
          -600 130 -102 callsubr
        </CharString>
        <CharString name="glyph00183">
          -14 callsubr
          600 hmoveto
          -65 callsubr
          -575 380 -102 callsubr
        </CharString>
        <CharString name="glyph00184">
          -14 callsubr
          600 hmoveto
          -63 callsubr
          -550 160 -102 callsubr
        </CharString>
        <CharString name="glyph00185">
          -46 callsubr
          -68 callsubr
          -450 -45 -102 callsubr
        </CharString>
        <CharString name="glyph00186">
          -14 callsubr
          -100 150 rmoveto
          -69 callsubr
          -575 -170 -102 callsubr
        </CharString>
        <CharString name="glyph00187">
          -14 callsubr
          600 hmoveto
          -62 callsubr
          -600 130 -102 callsubr
        </CharString>
        <CharString name="glyph00188">
          -46 callsubr
          -64 callsubr
          -600 130 -102 callsubr
        </CharString>
        <CharString name="glyph00189">
          -5 callsubr
          -85 callsubr
          25 150 -78 callsubr
          -575 -170 -102 callsubr
        </CharString>
        <CharString name="glyph00190">
          -5 callsubr
          -67 callsubr
          -575 380 -102 callsubr
        </CharString>
        <CharString name="glyph00191">
          -5 callsubr
          -85 callsubr
          -100 -70 -95 callsubr
          -450 -45 -102 callsubr
        </CharString>
        <CharString name="glyph00192">
          -5 callsubr
          -77 callsubr
          -550 160 -102 callsubr
        </CharString>
        <CharString name="glyph00193">
          -5 callsubr
          -76 callsubr
          -600 130 -102 callsubr
        </CharString>
        <CharString name="glyph00194">
          -32 callsubr
          -100 -150 57 callsubr
          -575 380 -102 callsubr
        </CharString>
        <CharString name="glyph00195">
          -32 callsubr
          -100 -150 62 callsubr
          -550 160 -102 callsubr
        </CharString>
        <CharString name="glyph00196">
          -32 callsubr
          -100 -150 60 callsubr
          -450 -45 -102 callsubr
        </CharString>
        <CharString name="glyph00197">
          -32 callsubr
          -100 -150 59 callsubr
          -575 -170 -102 callsubr
        </CharString>
        <CharString name="glyph00198">
          -32 callsubr
          -100 -150 63 callsubr
          -600 130 -102 callsubr
        </CharString>
        <CharString name="glyph00199">
          -32 callsubr
          -100 -150 61 callsubr
          -600 130 -102 callsubr
        </CharString>
        <CharString name="glyph00202">
          150 hmoveto
          152 callsubr
          20 -1200 -101 callsubr
        </CharString>
        <CharString name="glyph00203">
          150 hmoveto
          -85 callsubr
          -100 -70 -95 callsubr
          -550 -275 rmoveto
          100 1000 -106 callsubr
          20 -1200 -101 callsubr
        </CharString>
        <CharString name="glyph00204">
          150 hmoveto
          -77 callsubr
          -650 -70 rmoveto
          100 1000 -106 callsubr
          20 -1200 -101 callsubr
        </CharString>
        <CharString name="glyph00205">
          150 hmoveto
          -76 callsubr
          -700 -100 rmoveto
          100 1000 -106 callsubr
          20 -1200 -101 callsubr
        </CharString>
        <CharString name="glyph00206">
          850 hmoveto
          -65 callsubr
          -675 150 rmoveto
          100 1000 -106 callsubr
          20 -1200 -101 callsubr
        </CharString>
        <CharString name="glyph00207">
          850 hmoveto
          -63 callsubr
          -650 -70 rmoveto
          100 1000 -106 callsubr
          20 -1200 -101 callsubr
        </CharString>
        <CharString name="glyph00208">
          150 hmoveto
          -68 callsubr
          -550 -275 rmoveto
          100 1000 -106 callsubr
          20 -1200 -101 callsubr
        </CharString>
        <CharString name="glyph00209">
          150 150 rmoveto
          -69 callsubr
          -675 -400 rmoveto
          100 1000 -106 callsubr
          20 -1200 -101 callsubr
        </CharString>
        <CharString name="glyph00210">
          850 hmoveto
          -62 callsubr
          -700 -100 rmoveto
          100 1000 -106 callsubr
          20 -1200 -101 callsubr
        </CharString>
        <CharString name="glyph00211">
          150 hmoveto
          -64 callsubr
          -700 -100 rmoveto
          100 1000 -106 callsubr
          20 -1200 -101 callsubr
        </CharString>
        <CharString name="glyph00212">
          -87 callsubr
          hmoveto
          -85 callsubr
          25 150 -78 callsubr
          -575 -400 -98 callsubr
        </CharString>
        <CharString name="glyph00213">
          -87 callsubr
          hmoveto
          -67 callsubr
          -575 150 -98 callsubr
        </CharString>
        <CharString name="glyph00214">
          -87 callsubr
          hmoveto
          -85 callsubr
          -100 -70 -95 callsubr
          -450 -275 -98 callsubr
        </CharString>
        <CharString name="glyph00215">
          -87 callsubr
          hmoveto
          -77 callsubr
          -550 -70 -98 callsubr
        </CharString>
        <CharString name="glyph00216">
          -87 callsubr
          hmoveto
          -76 callsubr
          -600 -100 -98 callsubr
        </CharString>
        <CharString name="glyph00217">
          22 callsubr
          850 hmoveto
          -65 callsubr
          -575 150 -98 callsubr
        </CharString>
        <CharString name="glyph00218">
          22 callsubr
          850 hmoveto
          -63 callsubr
          -550 -70 -98 callsubr
        </CharString>
        <CharString name="glyph00219">
          -87 callsubr
          hmoveto
          -68 callsubr
          -450 -275 -98 callsubr
        </CharString>
        <CharString name="glyph00220">
          -87 callsubr
          150 rmoveto
          -69 callsubr
          -575 -400 -98 callsubr
        </CharString>
        <CharString name="glyph00221">
          22 callsubr
          850 hmoveto
          -62 callsubr
          -600 -100 -98 callsubr
        </CharString>
        <CharString name="glyph00222">
          -87 callsubr
          hmoveto
          -64 callsubr
          -600 -100 -98 callsubr
        </CharString>
        <CharString name="glyph00223">
          -52 callsubr
          -72 callsubr
          -400 rmoveto
          100 1000 -106 callsubr
        </CharString>
        <CharString name="glyph00224">
          -52 callsubr
          152 callsubr
        </CharString>
        <CharString name="glyph00225">
          -52 callsubr
          -85 callsubr
          -100 -70 -95 callsubr
          -550 -275 rmoveto
          100 1000 -106 callsubr
        </CharString>
        <CharString name="glyph00226">
          -52 callsubr
          -77 callsubr
          -650 -70 rmoveto
          100 1000 -106 callsubr
        </CharString>
        <CharString name="glyph00227">
          -52 callsubr
          -76 callsubr
          -700 -100 rmoveto
          100 1000 -106 callsubr
        </CharString>
        <CharString name="glyph00228">
          -50 100 57 callsubr
          -675 150 rmoveto
          100 1000 -106 callsubr
        </CharString>
        <CharString name="glyph00229">
          -50 100 62 callsubr
          -650 -70 rmoveto
          100 1000 -106 callsubr
        </CharString>
        <CharString name="glyph00230">
          -50 100 60 callsubr
          -550 -275 rmoveto
          100 1000 -106 callsubr
        </CharString>
        <CharString name="glyph00231">
          -50 100 59 callsubr
          -675 -400 rmoveto
          100 1000 -106 callsubr
        </CharString>
        <CharString name="glyph00232">
          -50 100 63 callsubr
          -700 -100 rmoveto
          100 1000 -106 callsubr
        </CharString>
        <CharString name="glyph00233">
          -50 100 61 callsubr
          -700 -100 rmoveto
          100 1000 -106 callsubr
        </CharString>
        <CharString name="glyph00234">
          -52 callsubr
          -85 callsubr
          25 150 -78 callsubr
          -575 -400 -98 callsubr
        </CharString>
        <CharString name="glyph00235">
          -52 callsubr
          -67 callsubr
          -575 150 -98 callsubr
        </CharString>
        <CharString name="glyph00236">
          -52 callsubr
          -85 callsubr
          -100 -70 -95 callsubr
          -450 -275 -98 callsubr
        </CharString>
        <CharString name="glyph00237">
          -52 callsubr
          -77 callsubr
          -550 -70 -98 callsubr
        </CharString>
        <CharString name="glyph00238">
          -52 callsubr
          -76 callsubr
          -600 -100 -98 callsubr
        </CharString>
        <CharString name="glyph00239">
          -50 100 57 callsubr
          -575 150 -98 callsubr
        </CharString>
        <CharString name="glyph00240">
          -50 100 62 callsubr
          -550 -70 -98 callsubr
        </CharString>
        <CharString name="glyph00241">
          -50 100 60 callsubr
          -450 -275 -98 callsubr
        </CharString>
        <CharString name="glyph00242">
          -50 100 59 callsubr
          -575 -400 -98 callsubr
        </CharString>
        <CharString name="glyph00243">
          -50 100 63 callsubr
          -600 -100 -98 callsubr
        </CharString>
        <CharString name="glyph00244">
          -50 100 61 callsubr
          -600 -100 -98 callsubr
        </CharString>
        <CharString name="glyph00247">
          250 -150 rmoveto
          55 49 22 28 46 hvcurveto
          -149 -32 -68 48 14 85 rrcurveto
          106 17 137 93 149 hhcurveto
          -113 88 rlineto
          -151 -32 -136 -118 -137 vvcurveto
          -98 67 -53 83 vhcurveto
          50 -82 callsubr
          -300 100 rmoveto
          160 50 21 18 20 14 29 5 rlinecurve
          2 10 0 11 18 13 18 -13 0 -11 2 -10 29 -5 20 -14 184 callsubr
          47 58 -7 -24 54 hvcurveto
          22 26 28 23 31 20 -40 25 -46 18 -51 10 rrcurveto
          153 -200 rmoveto
          18 -24 15 -30 11 -37 96 29 rcurveline
          -14 46 -20 41 -26 34 -31 -16 -28 -20 -21 -23 rrcurveto
        </CharString>
        <CharString name="glyph00248">
          236 226 callsubr
          -220 vmoveto
          200 100 -200 hlineto
          64 69 rmoveto
          86 51 -184 319 rlineto
          -116 hlineto
          150 -389 rmoveto
          -30 callsubr
          -92 189 217 callsubr
          -225 -514 177 callsubr
        </CharString>
        <CharString name="glyph00249">
          -50 hmoveto
          -30 callsubr
          300 -100 rmoveto
          171 51 149 29 100 hhcurveto
          -113 88 -141 -30 -100 -90 -42 -139 rlinecurve
          196 -29 137 callsubr
          153 -201 rmoveto
          18 -24 15 -30 11 -36 96 29 rcurveline
          -14 48 -21 41 -28 36 -30 -16 -26 -22 -21 -26 rrcurveto
        </CharString>
        <CharString name="glyph00250">
          286 226 callsubr
          -250 -70 rmoveto
          550 100 -550 hlineto
          314 -81 rmoveto
          86 51 -184 319 rlineto
          -116 hlineto
          58 -100 217 callsubr
        </CharString>
        <CharString name="glyph00251">
          228 hmoveto
          86 50 -200 346 -64 -88 64 -88 133 231 -57 99 -57 -99 133 -231 65 87 -141 243 -140 -242 rlineto
          -100 -308 rmoveto
          203 hlineto
          37 100 38 -100 rlineto
          103 100 -381 hlineto
          203 -100 rmoveto
          178 307 -64 89 -200 -346 rlineto
        </CharString>
        <CharString name="glyph00252">
          -50 hmoveto
          175 100 -175 hlineto
          375 -100 rmoveto
          75 100 -75 hlineto
          -275 150 rmoveto
          26 23 -2 -3 21 hvcurveto
          24 27 31 24 37 17 -14 6 -15 5 -15 4 12 30 20 19 25 15 25 -15 19 -19 13 -30 rrcurveto
          -122 -33 -86 -84 -111 vvcurveto
          -139 89 -79 51 -32 vhcurveto
          -26 50 -19 89 62 vvcurveto
          142 83 57 148 vhcurveto
          1 112 -68 104 -108 34 -108 -34 -68 -104 1 -112 rrcurveto
          183 -57 rmoveto
          31 -31 17 -46 -65 vvcurveto
          -62 -19 -89 -26 -50 vhcurveto
          51 32 89 79 139 vvcurveto
          51 -18 46 -32 37 vhcurveto
          -42 -7 -31 -14 -20 -20 rrcurveto
        </CharString>
        <CharString name="glyph00253">
          -50 hmoveto
          290 100 -290 hlineto
          330 -250 rmoveto
          -65 124 41 98 77 60 rrcurveto
          52 67 85 16 65 hhcurveto
          -113 88 -123 -26 -72 -68 -38 -58 rlinecurve
          -74 -113 48 -142 102 -31 rrcurveto
          70 150 137 callsubr
          154 -197 rmoveto
          49 -60 17 -84 -53 -100 102 31 48 142 -74 113 -4 5 -3 6 -5 6 -27 -15 -27 -18 -23 -26 rrcurveto
        </CharString>
        <CharString name="glyph00254">
          119 265 rmoveto
          24 19 26 15 22 16 -20 17 -16 19 -7 28 -7 28 6 29 28 14 rrcurveto
          -45 -49 -30 -70 -35 16 -27 22 -23 hvcurveto
          -169 -265 rmoveto
          400 100 hlineto
          78 -31 42 -38 31 vhcurveto
          -23 -22 -27 -18 -23 -17 rrcurveto
          29 -25 13 -23 -46 vvcurveto
          -100 hlineto
          50 15 23 35 27 vhcurveto
          52 40 67 39 71 vvcurveto
          70 -49 30 -45 vhcurveto
          28 -14 6 -29 -7 -28 rrcurveto
          -27 -111 -175 16 -184 vvcurveto
          -100 hlineto
        </CharString>
        <CharString name="glyph00255">
          288 150 rmoveto
          -28 -10 -28 -22 -32 77 callsubr
          hvcurveto
          66 callsubr
          rrcurveto
          -100 -100 438 82 callsubr
        </CharString>
        <CharString name="glyph00259">
          150 hmoveto
          450 100 -450 hlineto
          550 -100 rmoveto
          -25 callsubr
          225 -250 rmoveto
          -104 callsubr
          25 350 -73 callsubr
          -380 -240 -105 callsubr
        </CharString>
        <CharString name="glyph00260">
          150 hmoveto
          450 100 -450 hlineto
          550 -100 rmoveto
          -25 callsubr
          100 -30 rmoveto
          -103 callsubr
          50 130 -73 callsubr
          -380 -240 -105 callsubr
        </CharString>
        <CharString name="glyph00261">
          161 callsubr
        </CharString>
        <CharString name="glyph00262">
          200 hmoveto
          -25 callsubr
          225 -250 rmoveto
          -104 callsubr
          25 350 -73 callsubr
        </CharString>
        <CharString name="glyph00263">
          200 hmoveto
          -25 callsubr
          100 -30 rmoveto
          -103 callsubr
          50 130 -73 callsubr
        </CharString>
        <CharString name="glyph00264">
          189 callsubr
          93 43 46 67 -4 hvcurveto
          -6 93 -104 9 -22 63 -22 -63 -104 -9 -6 -93 rrcurveto
          -67 -4 43 -46 93 hhcurveto
        </CharString>
        <CharString name="glyph00265">
          189 callsubr
          64 40 22 36 18 hvcurveto
          10 20 -4 34 -21 10 13 10 1 23 -8 12 -32 47 -64 16 -17 48 -17 -48 -64 -16 -32 -47 -8 -12 1 -23 13 -10 -21 -10 -4 -34 10 -20 rrcurveto
          -36 18 40 -22 64 hhcurveto
        </CharString>
        <CharString name="glyph00266">
          -50 hmoveto
          -59 callsubr
          300 hmoveto
          -4 -24 24 20 3 hvcurveto
          5 35 43 44 27 10 -18 33 0 67 18 33 -125 134 rcurveline
          -125 -134 18 -33 0 -67 -18 -33 rlinecurve
          27 -10 43 -44 5 -35 rrcurveto
          -20 3 -24 -24 -4 hhcurveto
          -11 150 vlineto
          -75 167 rmoveto
          -14 -11 19 25 24 11 19 14 14 11 -19 -24 -25 -11 -19 -14 hvcurveto
        </CharString>
        <CharString name="glyph00267">
          161 callsubr
        </CharString>
        <CharString name="glyph00268">
          200 hmoveto
          -25 callsubr
          225 -250 rmoveto
          -104 callsubr
          25 350 -73 callsubr
        </CharString>
        <CharString name="glyph00269">
          200 hmoveto
          -25 callsubr
          100 -30 rmoveto
          -103 callsubr
          50 130 -73 callsubr
        </CharString>
        <CharString name="glyph00273">
          -87 callsubr
          12 callsubr
          100 -20 -100 callsubr
        </CharString>
        <CharString name="glyph00274">
          -87 callsubr
          15 callsubr
          100 -20 -100 callsubr
        </CharString>
        <CharString name="glyph00275">
          -87 callsubr
          14 callsubr
          100 -20 -100 callsubr
        </CharString>
        <CharString name="glyph00276">
          -87 callsubr
          18 callsubr
          100 -20 -100 callsubr
        </CharString>
        <CharString name="glyph00277">
          -87 callsubr
          1 callsubr
          100 -20 -100 callsubr
        </CharString>
        <CharString name="glyph00278">
          -87 callsubr
          6 callsubr
          100 -20 -100 callsubr
        </CharString>
        <CharString name="glyph00279">
          -87 callsubr
          4 callsubr
          100 -20 -100 callsubr
        </CharString>
        <CharString name="glyph00280">
          -87 callsubr
          2 callsubr
          100 -20 -100 callsubr
        </CharString>
        <CharString name="glyph00281">
          -87 callsubr
          9 callsubr
          100 -20 -100 callsubr
        </CharString>
        <CharString name="glyph00282">
          -87 callsubr
          5 callsubr
          100 -20 -100 callsubr
        </CharString>
        <CharString name="glyph00283">
          92 100 -35 callsubr
          -625 -250 -90 callsubr
          -100 -1100 -101 callsubr
        </CharString>
        <CharString name="glyph00284">
          92 112 callsubr
          -100 -1100 -101 callsubr
        </CharString>
        <CharString name="glyph00285">
          92 100 -33 callsubr
          -500 -125 -90 callsubr
          -100 -1100 -101 callsubr
        </CharString>
        <CharString name="glyph00286">
          92 117 callsubr
          -100 -1100 -101 callsubr
        </CharString>
        <CharString name="glyph00287">
          92 173 callsubr
          -160 -93 callsubr
          -650 50 -90 callsubr
          -100 -1100 -101 callsubr
        </CharString>
        <CharString name="glyph00288">
          92 100 -57 callsubr
          -550 vmoveto
          -104 callsubr
          -625 300 -90 callsubr
          -100 -1100 -101 callsubr
        </CharString>
        <CharString name="glyph00289">
          92 100 -56 callsubr
          -205 vmoveto
          -103 callsubr
          -600 80 -90 callsubr
          -100 -1100 -101 callsubr
        </CharString>
        <CharString name="glyph00290">
          92 100 -56 callsubr
          125 -425 rmoveto
          -104 callsubr
          -625 300 -90 callsubr
          -100 -1100 -101 callsubr
        </CharString>
        <CharString name="glyph00291">
          92 100 -57 callsubr
          -125 -330 rmoveto
          -103 callsubr
          -600 80 -90 callsubr
          -100 -1100 -101 callsubr
        </CharString>
        <CharString name="glyph00292">
          92 100 27 callsubr
          550 -30 rmoveto
          -103 callsubr
          50 20 -93 callsubr
          -650 50 -90 callsubr
          -100 -1100 -101 callsubr
        </CharString>
        <CharString name="glyph00293">
          92 100 -34 callsubr
          -650 50 -90 callsubr
          -100 -1100 -101 callsubr
        </CharString>
        <CharString name="glyph00294">
          150 150 rmoveto
          141 hlineto
          422 422 -103 39 rlineto
          -6 -72 rmoveto
          109 33 -321 321 -71 -70 rlineto
          -229 -723 -35 callsubr
          -369 479 -86 callsubr
          -167 -807 -105 callsubr
        </CharString>
        <CharString name="glyph00295">
          150 119 callsubr
          -167 -807 -105 callsubr
        </CharString>
        <CharString name="glyph00296">
          150 150 rmoveto
          141 hlineto
          422 422 -103 39 rlineto
          -6 -72 rmoveto
          109 33 -321 321 -71 -70 rlineto
          -229 -723 -33 callsubr
          -244 604 -86 callsubr
          -167 -807 -105 callsubr
        </CharString>
        <CharString name="glyph00297">
          150 54 callsubr
          400 -180 rmoveto
          -103 callsubr
          -344 809 -86 callsubr
          -167 -807 -105 callsubr
        </CharString>
        <CharString name="glyph00298">
          150 130 callsubr
          -160 -93 callsubr
          -394 779 -86 callsubr
          -167 -807 -105 callsubr
        </CharString>
        <CharString name="glyph00299">
          150 11 callsubr
          -550 vmoveto
          -104 callsubr
          -369 1029 -86 callsubr
          -167 -807 -105 callsubr
        </CharString>
        <CharString name="glyph00300">
          150 19 callsubr
          -205 vmoveto
          -103 callsubr
          -344 809 -86 callsubr
          -167 -807 -105 callsubr
        </CharString>
        <CharString name="glyph00301">
          150 19 callsubr
          125 -425 rmoveto
          -104 callsubr
          -369 1029 -86 callsubr
          -167 -807 -105 callsubr
        </CharString>
        <CharString name="glyph00302">
          150 11 callsubr
          -125 -330 rmoveto
          -103 callsubr
          -344 809 -86 callsubr
          -167 -807 -105 callsubr
        </CharString>
        <CharString name="glyph00303">
          150 108 callsubr
          -167 -807 -105 callsubr
        </CharString>
        <CharString name="glyph00304">
          150 150 rmoveto
          141 hlineto
          422 422 -103 39 rlineto
          -6 -72 rmoveto
          109 33 -321 321 -71 -70 rlineto
          -229 -723 -34 callsubr
          -394 779 -86 callsubr
          -167 -807 -105 callsubr
        </CharString>
        <CharString name="glyph00305">
          150 -82 callsubr
          -58 -150 -35 callsubr
          -554 -221 -89 callsubr
          -100 -1100 -101 callsubr
        </CharString>
        <CharString name="glyph00306">
          150 101 callsubr
          -100 -1100 -101 callsubr
        </CharString>
        <CharString name="glyph00307">
          150 -82 callsubr
          -58 -150 -33 callsubr
          -429 -96 -89 callsubr
          -100 -1100 -101 callsubr
        </CharString>
        <CharString name="glyph00308">
          150 102 callsubr
          -100 -1100 -101 callsubr
        </CharString>
        <CharString name="glyph00309">
          150 160 callsubr
          -160 -93 callsubr
          -579 79 -89 callsubr
          -100 -1100 -101 callsubr
        </CharString>
        <CharString name="glyph00310">
          150 -82 callsubr
          -58 -150 -57 callsubr
          -550 vmoveto
          -104 callsubr
          -554 329 -89 callsubr
          -100 -1100 -101 callsubr
        </CharString>
        <CharString name="glyph00311">
          150 -82 callsubr
          -58 -150 -56 callsubr
          -205 vmoveto
          -103 callsubr
          -529 109 -89 callsubr
          -100 -1100 -101 callsubr
        </CharString>
        <CharString name="glyph00312">
          150 -82 callsubr
          -58 -150 -56 callsubr
          125 -425 rmoveto
          -104 callsubr
          -554 329 -89 callsubr
          -100 -1100 -101 callsubr
        </CharString>
        <CharString name="glyph00313">
          150 -82 callsubr
          -58 -150 -57 callsubr
          -125 -330 rmoveto
          -103 callsubr
          -529 109 -89 callsubr
          -100 -1100 -101 callsubr
        </CharString>
        <CharString name="glyph00314">
          150 110 callsubr
          550 -30 rmoveto
          -103 callsubr
          50 20 -93 callsubr
          -579 79 -89 callsubr
          -100 -1100 -101 callsubr
        </CharString>
        <CharString name="glyph00315">
          150 -82 callsubr
          -58 -150 -34 callsubr
          -579 79 -89 callsubr
          -100 -1100 -101 callsubr
        </CharString>
        <CharString name="glyph00316">
          150 10 callsubr
          -250 -75 callsubr
          -25 150 -78 callsubr
          -605 -400 -105 callsubr
        </CharString>
        <CharString name="glyph00317">
          150 8 callsubr
          525 -400 rmoveto
          -104 callsubr
          -605 150 -105 callsubr
        </CharString>
        <CharString name="glyph00318">
          150 50 callsubr
          700 -100 -75 callsubr
          -550 -100 -22 callsubr
          400 -70 -95 callsubr
          -480 -275 -105 callsubr
        </CharString>
        <CharString name="glyph00319">
          150 8 callsubr
          400 -180 rmoveto
          -103 callsubr
          -580 -70 -105 callsubr
        </CharString>
        <CharString name="glyph00320">
          150 10 callsubr
          -160 -93 callsubr
          -630 -100 -105 callsubr
        </CharString>
        <CharString name="glyph00321">
          150 -1 callsubr
          -550 vmoveto
          -104 callsubr
          -605 150 -105 callsubr
        </CharString>
        <CharString name="glyph00322">
          150 0 callsubr
          -205 vmoveto
          -103 callsubr
          -580 -70 -105 callsubr
        </CharString>
        <CharString name="glyph00323">
          150 0 callsubr
          125 -425 rmoveto
          -104 callsubr
          -605 150 -105 callsubr
        </CharString>
        <CharString name="glyph00324">
          150 -1 callsubr
          -125 -330 rmoveto
          -103 callsubr
          -580 -70 -105 callsubr
        </CharString>
        <CharString name="glyph00325">
          150 7 callsubr
          550 -30 rmoveto
          -103 callsubr
          50 20 -93 callsubr
          -630 -100 -105 callsubr
        </CharString>
        <CharString name="glyph00326">
          150 7 callsubr
          675 -250 rmoveto
          -104 callsubr
          25 240 -93 callsubr
          -630 -100 -105 callsubr
        </CharString>
        <CharString name="glyph00327">
          -87 callsubr
          13 callsubr
          -20 -96 callsubr
        </CharString>
        <CharString name="glyph00328">
          150 12 callsubr
          -20 -96 callsubr
          -305 -1200 -101 callsubr
        </CharString>
        <CharString name="glyph00329">
          150 15 callsubr
          -20 -96 callsubr
          -305 -1200 -101 callsubr
        </CharString>
        <CharString name="glyph00330">
          150 14 callsubr
          -20 -96 callsubr
          -305 -1200 -101 callsubr
        </CharString>
        <CharString name="glyph00331">
          150 18 callsubr
          -20 -96 callsubr
          -305 -1200 -101 callsubr
        </CharString>
        <CharString name="glyph00332">
          150 1 callsubr
          -20 -96 callsubr
          -305 -1200 -101 callsubr
        </CharString>
        <CharString name="glyph00333">
          150 6 callsubr
          -20 -96 callsubr
          -305 -1200 -101 callsubr
        </CharString>
        <CharString name="glyph00334">
          150 4 callsubr
          -20 -96 callsubr
          -305 -1200 -101 callsubr
        </CharString>
        <CharString name="glyph00335">
          150 2 callsubr
          -20 -96 callsubr
          -305 -1200 -101 callsubr
        </CharString>
        <CharString name="glyph00336">
          150 9 callsubr
          -20 -96 callsubr
          -305 -1200 -101 callsubr
        </CharString>
        <CharString name="glyph00337">
          150 5 callsubr
          -20 -96 callsubr
          -305 -1200 -101 callsubr
        </CharString>
        <CharString name="glyph00338">
          50 13 callsubr
          100 -20 -100 callsubr
        </CharString>
        <CharString name="glyph00339">
          50 12 callsubr
          100 -20 -100 callsubr
        </CharString>
        <CharString name="glyph00340">
          50 15 callsubr
          100 -20 -100 callsubr
        </CharString>
        <CharString name="glyph00341">
          50 14 callsubr
          100 -20 -100 callsubr
        </CharString>
        <CharString name="glyph00342">
          50 18 callsubr
          100 -20 -100 callsubr
        </CharString>
        <CharString name="glyph00343">
          50 1 callsubr
          100 -20 -100 callsubr
        </CharString>
        <CharString name="glyph00344">
          50 6 callsubr
          100 -20 -100 callsubr
        </CharString>
        <CharString name="glyph00345">
          50 4 callsubr
          100 -20 -100 callsubr
        </CharString>
        <CharString name="glyph00346">
          50 2 callsubr
          100 -20 -100 callsubr
        </CharString>
        <CharString name="glyph00347">
          50 9 callsubr
          100 -20 -100 callsubr
        </CharString>
        <CharString name="glyph00348">
          50 5 callsubr
          100 -20 -100 callsubr
        </CharString>
        <CharString name="glyph00349">
          -8 100 -35 callsubr
          -625 -250 -90 callsubr
        </CharString>
        <CharString name="glyph00350">
          -8 112 callsubr
        </CharString>
        <CharString name="glyph00351">
          -8 100 -33 callsubr
          -500 -125 -90 callsubr
        </CharString>
        <CharString name="glyph00352">
          -8 117 callsubr
        </CharString>
        <CharString name="glyph00353">
          -8 173 callsubr
          -160 -93 callsubr
          -650 50 -90 callsubr
        </CharString>
        <CharString name="glyph00354">
          -8 100 -57 callsubr
          -550 vmoveto
          -104 callsubr
          -625 300 -90 callsubr
        </CharString>
        <CharString name="glyph00355">
          -8 100 -56 callsubr
          -205 vmoveto
          -103 callsubr
          -600 80 -90 callsubr
        </CharString>
        <CharString name="glyph00356">
          -8 100 -56 callsubr
          125 -425 rmoveto
          -104 callsubr
          -625 300 -90 callsubr
        </CharString>
        <CharString name="glyph00357">
          -8 100 -57 callsubr
          -125 -330 rmoveto
          -103 callsubr
          -600 80 -90 callsubr
        </CharString>
        <CharString name="glyph00358">
          -8 100 27 callsubr
          550 -30 rmoveto
          -103 callsubr
          50 20 -93 callsubr
          -650 50 -90 callsubr
        </CharString>
        <CharString name="glyph00359">
          -8 100 -34 callsubr
          -650 50 -90 callsubr
        </CharString>
        <CharString name="glyph00360">
          50 150 rmoveto
          141 hlineto
          422 422 -103 39 rlineto
          -6 -72 rmoveto
          109 33 -321 321 -71 -70 rlineto
          -229 -723 -35 callsubr
          -369 479 -86 callsubr
        </CharString>
        <CharString name="glyph00361">
          50 119 callsubr
        </CharString>
        <CharString name="glyph00362">
          50 150 rmoveto
          141 hlineto
          422 422 -103 39 rlineto
          -6 -72 rmoveto
          109 33 -321 321 -71 -70 rlineto
          -229 -723 -33 callsubr
          -244 604 -86 callsubr
        </CharString>
        <CharString name="glyph00363">
          50 54 callsubr
          400 -180 rmoveto
          -103 callsubr
          -344 809 -86 callsubr
        </CharString>
        <CharString name="glyph00364">
          50 130 callsubr
          -160 -93 callsubr
          -394 779 -86 callsubr
        </CharString>
        <CharString name="glyph00365">
          50 11 callsubr
          -550 vmoveto
          -104 callsubr
          -369 1029 -86 callsubr
        </CharString>
        <CharString name="glyph00366">
          50 19 callsubr
          -205 vmoveto
          -103 callsubr
          -344 809 -86 callsubr
        </CharString>
        <CharString name="glyph00367">
          50 19 callsubr
          125 -425 rmoveto
          -104 callsubr
          -369 1029 -86 callsubr
        </CharString>
        <CharString name="glyph00368">
          50 11 callsubr
          -125 -330 rmoveto
          -103 callsubr
          -344 809 -86 callsubr
        </CharString>
        <CharString name="glyph00369">
          50 108 callsubr
        </CharString>
        <CharString name="glyph00370">
          50 150 rmoveto
          141 hlineto
          422 422 -103 39 rlineto
          -6 -72 rmoveto
          109 33 -321 321 -71 -70 rlineto
          -229 -723 -34 callsubr
          -394 779 -86 callsubr
        </CharString>
        <CharString name="glyph00371">
          50 -82 callsubr
          -58 -150 -35 callsubr
          -554 -221 -89 callsubr
        </CharString>
        <CharString name="glyph00372">
          50 101 callsubr
        </CharString>
        <CharString name="glyph00373">
          50 -82 callsubr
          -58 -150 -33 callsubr
          -429 -96 -89 callsubr
        </CharString>
        <CharString name="glyph00374">
          50 102 callsubr
        </CharString>
        <CharString name="glyph00375">
          50 160 callsubr
          -160 -93 callsubr
          -579 79 -89 callsubr
        </CharString>
        <CharString name="glyph00376">
          50 -82 callsubr
          -58 -150 -57 callsubr
          -550 vmoveto
          -104 callsubr
          -554 329 -89 callsubr
        </CharString>
        <CharString name="glyph00377">
          50 -82 callsubr
          -58 -150 -56 callsubr
          -205 vmoveto
          -103 callsubr
          -529 109 -89 callsubr
        </CharString>
        <CharString name="glyph00378">
          50 -82 callsubr
          -58 -150 -56 callsubr
          125 -425 rmoveto
          -104 callsubr
          -554 329 -89 callsubr
        </CharString>
        <CharString name="glyph00379">
          50 -82 callsubr
          -58 -150 -57 callsubr
          -125 -330 rmoveto
          -103 callsubr
          -529 109 -89 callsubr
        </CharString>
        <CharString name="glyph00380">
          50 110 callsubr
          550 -30 rmoveto
          -103 callsubr
          50 20 -93 callsubr
          -579 79 -89 callsubr
        </CharString>
        <CharString name="glyph00381">
          50 -82 callsubr
          -58 -150 -34 callsubr
          -579 79 -89 callsubr
        </CharString>
        <CharString name="glyph00382">
          50 10 callsubr
          -250 -75 callsubr
          -25 150 -78 callsubr
        </CharString>
        <CharString name="glyph00383">
          50 8 callsubr
          525 -400 rmoveto
          -104 callsubr
        </CharString>
        <CharString name="glyph00384">
          50 50 callsubr
          700 -100 -75 callsubr
          -550 -100 -22 callsubr
          400 -70 -95 callsubr
        </CharString>
        <CharString name="glyph00385">
          50 8 callsubr
          400 -180 rmoveto
          -103 callsubr
        </CharString>
        <CharString name="glyph00386">
          50 10 callsubr
          -160 -93 callsubr
        </CharString>
        <CharString name="glyph00387">
          50 -1 callsubr
          -550 vmoveto
          -104 callsubr
        </CharString>
        <CharString name="glyph00388">
          50 0 callsubr
          -205 vmoveto
          -103 callsubr
        </CharString>
        <CharString name="glyph00389">
          50 0 callsubr
          125 -425 rmoveto
          -104 callsubr
        </CharString>
        <CharString name="glyph00390">
          50 -1 callsubr
          -125 -330 rmoveto
          -103 callsubr
        </CharString>
        <CharString name="glyph00391">
          50 7 callsubr
          550 -30 rmoveto
          -103 callsubr
          50 20 -93 callsubr
        </CharString>
        <CharString name="glyph00392">
          50 7 callsubr
          675 -250 rmoveto
          -104 callsubr
          25 240 -93 callsubr
        </CharString>
        <CharString name="glyph00393">
          50 13 callsubr
          -20 -96 callsubr
        </CharString>
        <CharString name="glyph00394">
          50 12 callsubr
          -20 -96 callsubr
        </CharString>
        <CharString name="glyph00395">
          50 15 callsubr
          -20 -96 callsubr
        </CharString>
        <CharString name="glyph00396">
          50 14 callsubr
          -20 -96 callsubr
        </CharString>
        <CharString name="glyph00397">
          50 18 callsubr
          -20 -96 callsubr
        </CharString>
        <CharString name="glyph00398">
          50 1 callsubr
          -20 -96 callsubr
        </CharString>
        <CharString name="glyph00399">
          50 6 callsubr
          -20 -96 callsubr
        </CharString>
        <CharString name="glyph00400">
          50 4 callsubr
          -20 -96 callsubr
        </CharString>
        <CharString name="glyph00401">
          50 2 callsubr
          -20 -96 callsubr
        </CharString>
        <CharString name="glyph00402">
          50 9 callsubr
          -20 -96 callsubr
        </CharString>
        <CharString name="glyph00403">
          50 5 callsubr
          -20 -96 callsubr
        </CharString>
        <CharString name="glyph00405">
          191 callsubr
          700 -50 callsubr
          -180 -1130 -101 callsubr
        </CharString>
        <CharString name="glyph00406">
          191 callsubr
          -50 rmoveto
          -47 callsubr
          -130 -750 200 1 blend
          -105 callsubr
        </CharString>
        <CharString name="glyph00407">
          80 callsubr
          -100 -98 callsubr
          -100 -880 -41 callsubr
          -180 -100 -105 callsubr
        </CharString>
        <CharString name="glyph00408">
          80 callsubr
          650 -50 callsubr
          -100 -880 -41 callsubr
          -180 -100 -105 callsubr
        </CharString>
        <CharString name="glyph00409">
          80 callsubr
          -100 rmoveto
          -47 callsubr
          -50 -500 200 1 blend
          -94 callsubr
          -180 -100 -105 callsubr
        </CharString>
        <CharString name="glyph00410">
          -53 callsubr
          300 -100 -98 callsubr
          -25 -1130 -107 callsubr
          rmoveto
          -104 callsubr
          -155 150 -105 callsubr
        </CharString>
        <CharString name="glyph00411">
          -53 callsubr
          300 650 -50 callsubr
          -25 -1130 -107 callsubr
          rmoveto
          -104 callsubr
          -155 150 -105 callsubr
        </CharString>
        <CharString name="glyph00412">
          200 callsubr
          -47 callsubr
          25 -750 200 1 blend
          rmoveto
          -104 callsubr
          -155 150 -105 callsubr
        </CharString>
        <CharString name="glyph00413">
          -53 callsubr
          300 -100 -98 callsubr
          -150 -910 -107 callsubr
          rmoveto
          -103 callsubr
          -130 -70 -105 callsubr
        </CharString>
        <CharString name="glyph00414">
          -53 callsubr
          300 650 -50 callsubr
          -150 -910 -107 callsubr
          rmoveto
          -103 callsubr
          -130 -70 -105 callsubr
        </CharString>
        <CharString name="glyph00415">
          200 callsubr
          -47 callsubr
          -100 -530 200 1 blend
          rmoveto
          -103 callsubr
          -130 -70 -105 callsubr
        </CharString>
        <CharString name="glyph00416">
          150 hmoveto
          -55 callsubr
          -100 -880 -41 callsubr
        </CharString>
        <CharString name="glyph00417">
          150 750 -50 callsubr
          -100 -880 -41 callsubr
        </CharString>
        <CharString name="glyph00418">
          150 hmoveto
          -47 callsubr
          -50 -500 200 1 blend
          -94 callsubr
        </CharString>
        <CharString name="glyph00419">
          213 callsubr
          100 263 rmoveto
          -100 -140 100 hlineto
          704 vmoveto
          -100 -140 100 hlineto
          -71 -495 rmoveto
          71 71 -99 99 -71 -71 rlineto
          -24 -10 rmoveto
          194 194 -99 99 -71 -71 29 -28 -125 -124 -10 -9 -15 -1 -10 10 rlinecurve
          -10 10 1 16 9 9 11 11 rcurveline
          -71 71 -10 -10 -49 -49 -1 -79 50 -49 rlinecurve
          49 -48 79 -1 49 49 rrcurveto
          -177 211 rmoveto
          116 -116 71 71 -117 117 -9 9 0 16 9 10 rlinecurve
          10 11 15 -1 10 -10 11 -11 rcurveline
          71 71 -10 10 -49 49 -79 1 -49 -50 rlinecurve
          -48 -49 -1 -79 49 -49 rrcurveto
          300 266 rmoveto
          -205 -205 71 -71 205 205 rlineto
          193 vmoveto
          220 vlineto
          -30 -68 -55 -52 -65 -30 rrcurveto
          3 47 -1 -49 hvcurveto
          -20 vlineto
        </CharString>
        <CharString name="glyph00420">
          50 hmoveto
          100 1000 -106 callsubr
          -100 -1100 -41 callsubr
        </CharString>
        <CharString name="glyph00421">
          49 callsubr
          -100 -1100 -41 callsubr
        </CharString>
        <CharString name="glyph00422">
          52 callsubr
          -100 -700 280 1 blend
          -94 callsubr
        </CharString>
        <CharString name="glyph00423">
          213 callsubr
          263 vmoveto
          -140 100 140 vlineto
          -100 564 rmoveto
          -140 100 140 vlineto
          -29 -635 rmoveto
          99 99 -71 71 -99 -99 rlineto
          194 18 rmoveto
          49 -49 79 1 49 48 50 49 -1 79 -49 49 -10 10 rcurveline
          -71 -71 11 -11 9 -9 1 -16 -10 -10 rlinecurve
          -10 -10 -15 1 -10 9 -125 124 rcurveline
          29 28 -71 71 -99 -99 rlineto
          371 17 rmoveto
          49 49 -1 79 -48 49 -49 50 -79 -1 -49 -49 -10 -10 rcurveline
          71 -71 11 11 10 10 15 1 10 -11 rlinecurve
          9 -10 0 -16 -9 -9 -117 -117 rcurveline
          71 -71 rlineto
          -184 382 rmoveto
          -71 -71 205 -205 71 71 rlineto
          -276 327 rmoveto
          -83 callsubr
        </CharString>
        <CharString name="glyph00424">
          150 hmoveto
          -55 callsubr
          -25 -1130 -107 callsubr
          rmoveto
          -104 callsubr
        </CharString>
        <CharString name="glyph00425">
          150 750 -50 callsubr
          -25 -1130 -107 callsubr
          rmoveto
          -104 callsubr
        </CharString>
        <CharString name="glyph00426">
          150 hmoveto
          -47 callsubr
          25 -750 200 1 blend
          rmoveto
          -104 callsubr
        </CharString>
        <CharString name="glyph00427">
          50 hmoveto
          100 1000 -106 callsubr
          -25 -1350 -107 callsubr
          rmoveto
          -104 callsubr
        </CharString>
        <CharString name="glyph00428">
          49 callsubr
          -25 -1350 -107 callsubr
          rmoveto
          -104 callsubr
        </CharString>
        <CharString name="glyph00429">
          52 callsubr
          -25 -950 280 1 blend
          rmoveto
          -104 callsubr
        </CharString>
        <CharString name="glyph00430">
          150 hmoveto
          -55 callsubr
          -150 -910 -107 callsubr
          rmoveto
          -103 callsubr
        </CharString>
        <CharString name="glyph00431">
          150 750 -50 callsubr
          -150 -910 -107 callsubr
          rmoveto
          -103 callsubr
        </CharString>
        <CharString name="glyph00432">
          150 hmoveto
          -47 callsubr
          -100 -530 200 1 blend
          rmoveto
          -103 callsubr
        </CharString>
        <CharString name="glyph00433">
          50 hmoveto
          100 1000 -106 callsubr
          -150 -1130 -107 callsubr
          rmoveto
          -103 callsubr
        </CharString>
        <CharString name="glyph00434">
          49 callsubr
          -150 -1130 -107 callsubr
          rmoveto
          -103 callsubr
        </CharString>
        <CharString name="glyph00435">
          52 callsubr
          -150 -730 280 1 blend
          rmoveto
          -103 callsubr
        </CharString>
        <CharString name="glyph00436">
          150 150 180 callsubr
        </CharString>
        <CharString name="glyph00437">
          50 150 182 callsubr
        </CharString>
        <CharString name="glyph00438">
          259 callsubr
          -100 180 callsubr
        </CharString>
        <CharString name="glyph00439">
          250 vmoveto
          -100 230 100 vlineto
          -20 -100 182 callsubr
        </CharString>
        <CharString name="glyph00440">
          206 callsubr
          344 255 callsubr
          100 vlineto
          -150 100 rmoveto
          83 67 67 83 hvcurveto
          250 -100 -250 186 callsubr
          rmoveto
          224 callsubr
        </CharString>
        <CharString name="glyph00441">
          206 callsubr
          450 rmoveto
          200 -100 -100 -50 vlineto
          39 callsubr
          50 -100 100 200 239 callsubr
          150 380 -100 callsubr
        </CharString>
        <CharString name="glyph00443">
          146 callsubr
        </CharString>
        <CharString name="glyph00444">
          120 callsubr
        </CharString>
        <CharString name="glyph00445">
          123 callsubr
        </CharString>
        <CharString name="glyph00446">
          -53 callsubr
          -100 vmoveto
          -59 callsubr
          100 -20 -95 callsubr
          -80 -175 -105 callsubr
        </CharString>
        <CharString name="glyph00447">
          -31 -150 rmoveto
          109 22 71 79 hvcurveto
          50 -100 -50 vlineto
          1 -42 0 -92 -101 -1 rrcurveto
          -9 15 31 -6 23 hhcurveto
          181 200 -73 callsubr
        </CharString>
        <CharString name="glyph00448">
          146 callsubr
        </CharString>
        <CharString name="glyph00449">
          120 callsubr
        </CharString>
        <CharString name="glyph00450">
          123 callsubr
        </CharString>
        <CharString name="glyph00451">
          -53 callsubr
          -100 vmoveto
          -59 callsubr
          100 -20 -95 callsubr
          -80 -175 -105 callsubr
        </CharString>
        <CharString name="glyph00452">
          251 callsubr
          -175 169 callsubr
        </CharString>
        <CharString name="glyph00453">
          251 callsubr
          -75 170 callsubr
        </CharString>
        <CharString name="glyph00454">
          141 callsubr
        </CharString>
        <CharString name="glyph00455">
          143 callsubr
        </CharString>
        <CharString name="glyph00456">
          -50 hmoveto
          -59 callsubr
          100 -20 -95 callsubr
        </CharString>
        <CharString name="glyph00457">
          -50 hmoveto
          -59 callsubr
          250 -50 -73 callsubr
        </CharString>
        <CharString name="glyph00458">
          141 callsubr
        </CharString>
        <CharString name="glyph00459">
          143 callsubr
        </CharString>
        <CharString name="glyph00460">
          -50 hmoveto
          -59 callsubr
          100 -20 -95 callsubr
        </CharString>
        <CharString name="glyph00463">
          148 callsubr
        </CharString>
        <CharString name="glyph00464">
          178 callsubr
        </CharString>
        <CharString name="glyph00465">
          171 callsubr
        </CharString>
        <CharString name="glyph00466">
          181 callsubr
        </CharString>
        <CharString name="glyph00467">
          65 callsubr
        </CharString>
        <CharString name="glyph00468">
          148 callsubr
        </CharString>
        <CharString name="glyph00469">
          178 callsubr
        </CharString>
        <CharString name="glyph00470">
          171 callsubr
        </CharString>
        <CharString name="glyph00471">
          181 callsubr
        </CharString>
        <CharString name="glyph00473">
          200 hmoveto
          100 400 -100 hlineto
          -200 -400 rmoveto
          -16 callsubr
          250 290 -102 callsubr
        </CharString>
        <CharString name="glyph00474">
          -17 callsubr
          250 -90 -98 callsubr
        </CharString>
        <CharString name="glyph00475">
          -17 callsubr
          250 660 -50 callsubr
        </CharString>
        <CharString name="glyph00476">
          -17 callsubr
          250 -90 rmoveto
          420 -200 1 blend
          -100 -420 200 1 blend
          vlineto
          100 730 -230 1 blend
          rmoveto
          270 -170 1 blend
          -100 -270 170 1 blend
          vlineto
          100 250 -170 1 blend
          -100 callsubr
          100 -380 200 1 blend
          rmoveto
          200 -80 1 blend
          -100 -100 80 1 blend
          -50 vlineto
          39 callsubr
          50 -100 80 1 blend
          100 200 -80 1 blend
          -150 hlineto
          -28 -22 22 28 28 22 22 28 hvcurveto
        </CharString>
        <CharString name="glyph00477">
          237 callsubr
          -86 -238 rmoveto
          -100 396 vlineto
          -109 100 rlineto
          -312 -50 rmoveto
          -50 vlineto
          -150 -150 265 150 rlineto
          50 vlineto
          135 183 211 callsubr
          -64 24 -58 40 -45 vhcurveto
          78 53 196 callsubr
        </CharString>
        <CharString name="glyph00478">
          -50 650 94 callsubr
        </CharString>
        <CharString name="glyph00479">
          -50 hmoveto
          287 100 -287 hlineto
          487 -100 rmoveto
          63 100 -63 hlineto
          -106 64 callsubr
          -221 382 -41 -125 183 -318 28 callsubr
          -51 1076 70 callsubr
          22 8 rmoveto
          5 -64 -73 -49 -66 vvcurveto
          -16 4 -16 10 -18 vhcurveto
          149 -13 rlineto
          6 vlineto
          -34 11 -38 36 -6 41 rrcurveto
          -1 7 0 8 7 46 15 52 38 vvcurveto
          52 -31 10 -19 -4 -3 0 -1 -3 vhcurveto
          -224 -599 rmoveto
          126 16 70 93 129 hhcurveto
          133 52 -100 -124 -79 -18 -88 -39 -80 hvcurveto
          57 -100 rlineto
          71 121 29 124 108 vvcurveto
          162 -87 150 -163 -138 -112 -105 -208 vhcurveto
          13 -523 rmoveto
          115 hlineto
          177 306 -55 105 rlineto
        </CharString>
        <CharString name="glyph00480">
          69 367 105 callsubr
        </CharString>
        <CharString name="glyph00481">
          -50 hmoveto
          97 callsubr
        </CharString>
        <CharString name="glyph00482">
          139 callsubr
        </CharString>
        <CharString name="glyph00483">
          103 callsubr
        </CharString>
        <CharString name="glyph00484">
          99 callsubr
        </CharString>
        <CharString name="glyph00485">
          376 228 rmoveto
          71 70 -117 117 -9 9 0 16 10 10 rlinecurve
          10 10 14 -1 10 -9 11 -10 rcurveline
          71 70 -10 10 -48 48 -80 2 -49 -50 rlinecurve
          -48 -49 0 -79 49 -49 rrcurveto
          164 -9 rmoveto
          118 117 9 9 15 0 10 -10 rlinecurve
          10 -10 0 -15 -9 -9 -11 -12 rcurveline
          70 -70 10 10 49 49 2 78 -50 50 rlinecurve
          -49 49 -79 -1 -49 -49 -116 -116 rcurveline
          176 22 rmoveto
          -70 -71 289 -289 107 34 rlineto
          -305 hlineto
          2 -100 rlineto
          303 100 hlineto
          -836 -29 rmoveto
          141 -1 179 179 -71 71 rlineto
          -320 -320 rmoveto
          569 hlineto
          16 33 -11 39 -34 28 rrcurveto
          -540 hlineto
          338 10 rmoveto
          126 hlineto
          139 139 -71 71 -157 -157 -15 -15 -13 -18 -9 -20 rlinecurve
          -12 -120 rmoveto
          -80 19 73 -60 86 hhcurveto
          100 82 82 101 51 -21 46 -34 33 hvcurveto
          -50 50 -70 -70 52 -52 rlineto
          11 -13 12 -22 -24 vvcurveto
          -45 -37 -37 -45 -30 -27 16 24 -14 vhcurveto
        </CharString>
        <CharString name="glyph00486">
          -50 100 rmoveto
          -100 104 100 vlineto
          290 256 rmoveto
          39 -7 36 -15 31 -22 rrcurveto
          107 -4 -51 81 -95 hhcurveto
          -100 vlineto
          22 15 -14 -30 7 hvcurveto
          -294 -356 rmoveto
          120 hlineto
          101 99 77 98 49 hvcurveto
          -19 29 -29 22 -35 9 rrcurveto
          -66 -26 -65 -69 -95 hhcurveto
          -100 hlineto
          260 -65 rmoveto
          -22 37 41 -13 42 hhcurveto
          120 100 -100 hlineto
          -22 -20 4 6 -19 hvcurveto
          -23 -30 -27 -25 -29 -20 rrcurveto
          -16 147 rmoveto
          -29 38 -15 45 35 vvcurveto
          70 18 30 32 vhcurveto
          100 vlineto
          -99 -51 -87 -113 -62 25 -63 39 -53 hvcurveto
          31 12 27 21 22 27 rrcurveto
          -30 165 rmoveto
          -3 -12 -1 -16 -19 vvcurveto
          -16 4 -19 6 -18 vhcurveto
          2 10 10 1 10 hhcurveto
          83 67 -67 -83 hvcurveto
          100 hlineto
          138 -112 112 -138 -12 -12 -1 -2 -12 vhcurveto
          -214 -247 rmoveto
          100 hlineto
          27 7 26 13 22 vhcurveto
          -18 39 -11 40 -1 38 rrcurveto
          -55 -46 -35 -69 -77 vvcurveto
        </CharString>
        <CharString name="glyph00487">
          391 hmoveto
          115 hlineto
          -204 354 -106 -16 rlineto
          -246 -238 rmoveto
          -100 556 vlineto
          -109 100 rlineto
          -62 133 246 callsubr
          210 246 rmoveto
          -25 103 rlineto
          12 -29 -31 6 -33 hhcurveto
          -136 -106 -104 -136 -31 5 -29 11 -27 hvcurveto
          99 3 rlineto
          -16 24 -9 30 32 vvcurveto
          85 66 60 86 34 54 -16 -12 30 vhcurveto
        </CharString>
        <CharString name="glyph00488">
          452 -79 callsubr
          -589 500 94 callsubr
        </CharString>
        <CharString name="glyph00489">
          452 -79 callsubr
          -589 -150 rmoveto
          287 100 -287 hlineto
          487 -100 rmoveto
          63 100 -63 hlineto
          -106 64 callsubr
          -221 382 -41 -125 183 -318 28 callsubr
          -51 1076 70 callsubr
          22 8 rmoveto
          5 -64 -73 -49 -66 vvcurveto
          -16 4 -16 10 -18 vhcurveto
          149 -13 rlineto
          6 vlineto
          -34 11 -38 36 -6 41 rrcurveto
          -1 7 0 8 7 46 15 52 38 vvcurveto
          52 -31 10 -19 -4 -3 0 -1 -3 vhcurveto
          -224 -599 rmoveto
          126 16 70 93 129 hhcurveto
          133 52 -100 -124 -79 -18 -88 -39 -80 hvcurveto
          57 -100 rlineto
          71 121 29 124 108 vvcurveto
          162 -87 150 -163 -138 -112 -105 -208 vhcurveto
          13 -523 rmoveto
          115 hlineto
          177 306 -55 105 rlineto
        </CharString>
        <CharString name="glyph00490">
          452 -79 callsubr
          -470 217 105 callsubr
        </CharString>
        <CharString name="glyph00491">
          452 -79 callsubr
          -589 -150 rmoveto
          97 callsubr
        </CharString>
        <CharString name="glyph00492">
          139 callsubr
        </CharString>
        <CharString name="glyph00493">
          103 callsubr
        </CharString>
        <CharString name="glyph00494">
          99 callsubr
        </CharString>
        <CharString name="glyph00497">
          -50 -113 rmoveto
          -29 41 39 -8 39 hhcurveto
          126 55 106 123 103 -45 56 -80 62 hvcurveto
          -26 -28 -25 -14 -6 vhcurveto
          -48 -17 -35 -47 -54 vvcurveto
          -69 56 -56 69 vhcurveto
          13 hlineto
          -8 -41 -54 -73 -126 1 rrcurveto
          150 238 rmoveto
          37 callsubr
          -14 -11 11 14 vhcurveto
        </CharString>
        <CharString name="glyph00498">
          101 125 rmoveto
          37 callsubr
          -14 -11 11 14 vhcurveto
          -151 -275 rmoveto
          126 hlineto
          77 64 49 69 25 hvcurveto
          12 33 7 37 40 vvcurveto
          103 -55 57 -80 62 vhcurveto
          -26 -28 -25 -14 -6 vhcurveto
          -47 -20 -36 -44 -54 vvcurveto
          -69 56 -56 69 9 9 1 2 9 vhcurveto
          -30 -10 -33 -23 -33 hhcurveto
          -36 -29 21 29 -12 hvcurveto
          -7 -56 -15 -50 -28 -44 rrcurveto
        </CharString>
        <CharString name="glyph00501">
          526 -79 callsubr
          -463 -150 rmoveto
          129 callsubr
        </CharString>
        <CharString name="glyph00502">
          526 -79 callsubr
          -463 -150 rmoveto
          128 callsubr
        </CharString>
        <CharString name="glyph00503">
          626 -79 callsubr
          -262 -150 rmoveto
          23 callsubr
          -27 -474 rmoveto
          -59 callsubr
          476 -100 -38 callsubr
          -456 -100 -105 callsubr
        </CharString>
        <CharString name="glyph00504">
          526 -79 callsubr
          -262 -150 rmoveto
          23 callsubr
          73 -474 rmoveto
          -48 callsubr
          376 -100 -38 callsubr
          -356 -100 -105 callsubr
        </CharString>
        <CharString name="glyph00505">
          526 -79 callsubr
          -463 -150 rmoveto
          158 callsubr
        </CharString>
        <CharString name="glyph00506">
          201 hmoveto
          149 150 hlineto
          -150 -150 rmoveto
          142 callsubr
        </CharString>
        <CharString name="glyph00507">
          201 hmoveto
          149 150 hlineto
          -150 -150 rmoveto
          157 callsubr
        </CharString>
        <CharString name="glyph00508">
          324 -79 callsubr
          -87 -150 rmoveto
          135 callsubr
        </CharString>
        <CharString name="glyph00509">
          324 -79 callsubr
          -87 -150 rmoveto
          147 callsubr
        </CharString>
        <CharString name="glyph00510">
          432 -79 callsubr
          -87 -150 rmoveto
          116 callsubr
        </CharString>
        <CharString name="glyph00511">
          382 -79 callsubr
          -87 -150 rmoveto
          126 callsubr
        </CharString>
        <CharString name="glyph00512">
          412 -79 callsubr
          -87 -150 rmoveto
          -2 callsubr
          -152 554 rmoveto
          -83 callsubr
        </CharString>
        <CharString name="glyph00513">
          412 -79 callsubr
          -87 -150 rmoveto
          -2 callsubr
          -52 554 -100 callsubr
        </CharString>
        <CharString name="glyph00514">
          150 hmoveto
          125 callsubr
        </CharString>
        <CharString name="glyph00515">
          150 hmoveto
          129 callsubr
        </CharString>
        <CharString name="glyph00516">
          150 hmoveto
          128 callsubr
        </CharString>
        <CharString name="glyph00517">
          451 hmoveto
          23 callsubr
          -27 -474 rmoveto
          -59 callsubr
          476 -100 -38 callsubr
          -456 -100 -105 callsubr
        </CharString>
        <CharString name="glyph00518">
          351 hmoveto
          23 callsubr
          73 -474 rmoveto
          -48 callsubr
          376 -100 -38 callsubr
          -356 -100 -105 callsubr
        </CharString>
        <CharString name="glyph00519">
          150 hmoveto
          158 callsubr
        </CharString>
        <CharString name="glyph00520">
          200 hmoveto
          142 callsubr
        </CharString>
        <CharString name="glyph00521">
          200 hmoveto
          157 callsubr
        </CharString>
        <CharString name="glyph00522">
          324 hmoveto
          135 callsubr
        </CharString>
        <CharString name="glyph00523">
          324 hmoveto
          147 callsubr
        </CharString>
        <CharString name="glyph00524">
          432 hmoveto
          116 callsubr
        </CharString>
        <CharString name="glyph00525">
          382 hmoveto
          126 callsubr
        </CharString>
        <CharString name="glyph00526">
          412 hmoveto
          -2 callsubr
          -52 554 -100 callsubr
        </CharString>
        <CharString name="glyph00527">
          412 hmoveto
          -2 callsubr
          -152 554 rmoveto
          -83 callsubr
        </CharString>
        <CharString name="glyph00532">
          500 hmoveto
          100 1000 124 callsubr
        </CharString>
        <CharString name="glyph00533">
          47 callsubr
        </CharString>
        <CharString name="glyph00534">
          47 callsubr
          230 -88 callsubr
        </CharString>
        <CharString name="glyph00535">
          167 callsubr
          584 -51 callsubr
          280 -88 callsubr
        </CharString>
        <CharString name="glyph00536">
          163 callsubr
          584 -51 callsubr
          330 -88 callsubr
        </CharString>
        <CharString name="glyph00537">
          47 callsubr
          150 -960 -49 callsubr
          -20 -20 -97 callsubr
        </CharString>
        <CharString name="glyph00538">
          -74 callsubr
          250 -950 -11 callsubr
          -350 100 -94 callsubr
          106 584 -51 callsubr
          230 -88 callsubr
        </CharString>
        <CharString name="glyph00539">
          -74 callsubr
          -100 -900 -94 callsubr
          106 509 -70 callsubr
        </CharString>
        <CharString name="glyph00540">
          -74 callsubr
          -100 -900 -94 callsubr
          106 509 -70 callsubr
          230 -88 callsubr
        </CharString>
        <CharString name="glyph00541">
          167 callsubr
          509 -70 callsubr
          280 -88 callsubr
        </CharString>
        <CharString name="glyph00542">
          163 callsubr
          509 -70 callsubr
          330 -88 callsubr
        </CharString>
        <CharString name="glyph00543">
          -74 callsubr
          -100 -900 -94 callsubr
          106 509 -70 callsubr
          150 -960 -49 callsubr
          -20 -20 -97 callsubr
        </CharString>
        <CharString name="glyph00544">
          -74 callsubr
          250 -950 -11 callsubr
          -350 100 -94 callsubr
          106 509 -70 callsubr
          230 -88 callsubr
        </CharString>
        <CharString name="glyph00545">
          48 callsubr
        </CharString>
        <CharString name="glyph00546">
          48 callsubr
          230 -88 callsubr
        </CharString>
        <CharString name="glyph00547">
          -74 callsubr
          300 -900 -29 callsubr
          -400 100 17 callsubr
          280 -88 callsubr
        </CharString>
        <CharString name="glyph00548">
          -74 callsubr
          350 -900 -60 callsubr
          -450 100 17 callsubr
          330 -88 callsubr
        </CharString>
        <CharString name="glyph00549">
          48 callsubr
          150 -960 -49 callsubr
          -20 -20 -97 callsubr
        </CharString>
        <CharString name="glyph00550">
          -74 callsubr
          250 -950 -11 callsubr
          -350 100 17 callsubr
          230 -88 callsubr
        </CharString>
        <CharString name="glyph00551">
          176 callsubr
          434 -51 callsubr
        </CharString>
        <CharString name="glyph00552">
          -44 callsubr
          -100 -750 -54 callsubr
          289 -51 callsubr
          230 -88 callsubr
        </CharString>
        <CharString name="glyph00553">
          -44 callsubr
          300 -900 -29 callsubr
          -400 250 -54 callsubr
          289 -51 callsubr
          280 -88 callsubr
        </CharString>
        <CharString name="glyph00554">
          -44 callsubr
          350 -900 -60 callsubr
          -450 250 -54 callsubr
          289 -51 callsubr
          330 -88 callsubr
        </CharString>
        <CharString name="glyph00555">
          -44 callsubr
          -100 -750 -54 callsubr
          289 -51 callsubr
          150 -960 -49 callsubr
          -20 -20 -97 callsubr
        </CharString>
        <CharString name="glyph00556">
          -9 callsubr
          -1000 vmoveto
          164 callsubr
          250 -54 callsubr
          289 -51 callsubr
          230 -88 callsubr
        </CharString>
        <CharString name="glyph00557">
          176 callsubr
          359 -70 callsubr
        </CharString>
        <CharString name="glyph00558">
          -44 callsubr
          -100 -750 -54 callsubr
          214 -70 callsubr
          230 -88 callsubr
        </CharString>
        <CharString name="glyph00559">
          -44 callsubr
          300 -900 -29 callsubr
          -400 250 -54 callsubr
          214 -70 callsubr
          280 -88 callsubr
        </CharString>
        <CharString name="glyph00560">
          -44 callsubr
          350 -900 -60 callsubr
          -450 250 -54 callsubr
          214 -70 callsubr
          330 -88 callsubr
        </CharString>
        <CharString name="glyph00561">
          -44 callsubr
          -100 -750 -54 callsubr
          214 -70 callsubr
          150 -960 -49 callsubr
          -20 -20 -97 callsubr
        </CharString>
        <CharString name="glyph00562">
          -9 callsubr
          -1000 vmoveto
          164 callsubr
          250 -54 callsubr
          214 -70 callsubr
          230 -88 callsubr
        </CharString>
        <CharString name="glyph00563">
          199 callsubr
          350 -100 hlineto
          -150 -300 232 callsubr
          350 -100 -350 vlineto
          -464 790 34 callsubr
          -50 -1000 rmoveto
          35 callsubr
          1078 330 247 callsubr
          350 -690 -60 callsubr
          -200 790 41 callsubr
          -50 -1000 rmoveto
          35 callsubr
          -1278 -360 rmoveto
          -100 200 100 vlineto
          312 674 rmoveto
          205 -205 71 71 -134 134 35 35 35 -35 -28 -28 71 -71 99 99 -177 177 rlineto
          -212 -566 rmoveto
          205 205 -71 71 -134 -134 -35 35 35 35 28 -28 257 callsubr
          778 hmoveto
          -177 177 -205 -205 71 -71 134 134 35 -35 -35 -35 -28 28 -71 -71 99 -99 rlineto
          -87 17 241 callsubr
          -60 100 vlineto
          -203 149 rmoveto
          -47 -47 rlineto
          -102 100 60 vlineto
          18 18 rlineto
          -576 381 -37 callsubr
          1090 268 -37 callsubr
          -169 -641 113 callsubr
          250 890 -100 callsubr
          150 hmoveto
          -83 callsubr
          1308 -1200 -97 callsubr
          -230 880 -100 callsubr
          150 hmoveto
          -83 callsubr
        </CharString>
        <CharString name="glyph00564">
          199 callsubr
          250 -100 hlineto
          -150 -200 232 callsubr
          250 -100 -250 vlineto
          -464 hmoveto
          35 callsubr
          1328 -360 -60 callsubr
          -250 hmoveto
          35 callsubr
          -1278 -360 rmoveto
          -100 200 100 vlineto
          1028 690 34 callsubr
          -1178 -210 34 callsubr
          355 -544 rmoveto
          71 71 -134 134 35 36 28 -29 257 callsubr
          389 389 rmoveto
          -177 -176 205 -206 71 71 -134 135 35 35 35 -35 -28 -29 71 -70 99 99 rlineto
          -389 -601 rmoveto
          205 205 -71 70 -134 -134 -35 35 28 29 -71 70 -99 -99 rlineto
          311 311 rmoveto
          -127 -127 71 -71 127 128 rlineto
          -92 -106 rmoveto
          127 -128 71 71 -127 127 rlineto
          240 184 rmoveto
          -205 -205 71 -71 134 135 35 -36 -28 -28 71 -71 99 99 rlineto
          -205 -7 rmoveto
          -71 -70 134 -135 -35 -35 -28 28 -71 -70 99 -99 177 176 rlineto
          -311 -99 rmoveto
          127 128 -71 70 -127 -127 rlineto
          118 -132 241 callsubr
          -47 100 vlineto
          -203 136 rmoveto
          -47 -47 rlineto
          -89 100 47 vlineto
          18 18 rlineto
          421 -415 113 callsubr
          1384 669 -37 callsubr
          -1166 268 -37 callsubr
          1314 -491 -97 callsubr
          -230 880 -100 callsubr
          150 hmoveto
          -83 callsubr
          -1178 -220 -100 callsubr
          150 hmoveto
          -83 callsubr
        </CharString>
        <CharString name="glyph00565">
          350 hmoveto
          100 893 -100 hlineto
          -150 -793 rmoveto
          -100 200 100 vlineto
          -200 -100 85 callsubr
          250 393 rmoveto
          -159 159 -70 -71 158 -159 rlineto
          221 -822 rmoveto
          500 -100 -500 vlineto
          150 hmoveto
          100 500 -100 hlineto
          -50 290 34 callsubr
          -175 -1150 rmoveto
          70 55 57 69 hvcurveto
          44 -100 -46 vlineto
          -13 -11 -11 -14 -14 -11 11 13 vhcurveto
          46 -100 -44 vlineto
          -69 56 -57 69 vhcurveto
          -475 150 rmoveto
          -16 callsubr
          250 390 -102 callsubr
          105 558 rmoveto
          -155 155 26 -69 -2 -76 -24 -67 rlinecurve
          2 2 34 33 34 -35 14 -14 rcurveline
          366 -242 162 callsubr
          -32 410 -100 callsubr
          150 hmoveto
          -83 callsubr
          80 -1200 -97 callsubr
        </CharString>
        <CharString name="glyph00566">
          350 hmoveto
          100 1000 -106 callsubr
          -350 -1200 -107 callsubr
          rmoveto
          60 100 -10 hlineto
          -41 -20 -36 -30 -23 vhcurveto
          200 50 -73 callsubr
          250 -90 rmoveto
          -55 callsubr
        </CharString>
        <CharString name="glyph00567">
          150 hmoveto
          -72 callsubr
          -200 rmoveto
          100 800 -106 callsubr
          -50 -1200 -107 callsubr
          -98 callsubr
        </CharString>
        <CharString name="glyph00568">
          500 hmoveto
          -72 callsubr
          -200 rmoveto
          100 800 124 callsubr
        </CharString>
        <CharString name="glyph00569">
          200 hmoveto
          -72 callsubr
          -200 rmoveto
          100 800 -106 callsubr
          -50 -1200 -107 callsubr
          -98 callsubr
          -100 -880 -41 callsubr
        </CharString>
        <CharString name="glyph00570">
          100 callsubr
        </CharString>
        <CharString name="glyph00571">
          96 callsubr
        </CharString>
        <CharString name="glyph00572">
          98 callsubr
        </CharString>
        <CharString name="glyph00573">
          92 callsubr
        </CharString>
        <CharString name="glyph00574">
          87 callsubr
        </CharString>
        <CharString name="glyph00575">
          90 callsubr
        </CharString>
        <CharString name="glyph00576">
          88 callsubr
        </CharString>
        <CharString name="glyph00577">
          95 callsubr
        </CharString>
        <CharString name="glyph00578">
          500 100 -29 callsubr
          -450 400 rmoveto
          -100 vlineto
          148 -19 114 -126 -153 vvcurveto
          100 hlineto
          208 -159 171 -203 19 vhcurveto
          400 hmoveto
          -203 -19 -159 -171 -208 vvcurveto
          100 hlineto
          153 114 126 148 19 vhcurveto
          -400 hmoveto
          100 700 -81 callsubr
          hlineto
          300 hmoveto
          -700 -107 callsubr
          100 700 -84 callsubr
          vlineto
          -200 -1150 -107 callsubr
          72 callsubr
          150 49 rmoveto
          -300 hlineto
          -55 -45 -45 -55 hvcurveto
          500 hlineto
          55 -45 45 -55 vhcurveto
          -350 881 74 callsubr
          400 -220 -100 callsubr
        </CharString>
        <CharString name="glyph00579">
          107 callsubr
        </CharString>
        <CharString name="glyph00580">
          100 callsubr
        </CharString>
        <CharString name="glyph00581">
          96 callsubr
        </CharString>
        <CharString name="glyph00582">
          98 callsubr
        </CharString>
        <CharString name="glyph00583">
          92 callsubr
        </CharString>
        <CharString name="glyph00584">
          87 callsubr
        </CharString>
        <CharString name="glyph00585">
          90 callsubr
        </CharString>
        <CharString name="glyph00586">
          88 callsubr
        </CharString>
        <CharString name="glyph00587">
          95 callsubr
        </CharString>
        <CharString name="glyph00588">
          50 400 rmoveto
          -100 vlineto
          148 -19 114 -126 -153 vvcurveto
          100 hlineto
          208 -159 171 -203 19 vhcurveto
          400 hmoveto
          -203 -19 -159 -171 -208 vvcurveto
          100 hlineto
          153 114 126 148 19 vhcurveto
          -400 hmoveto
          100 700 -81 callsubr
          hlineto
          300 hmoveto
          -700 -107 callsubr
          100 700 -84 callsubr
          vlineto
          -200 -1150 -107 callsubr
          72 callsubr
          150 49 rmoveto
          -300 hlineto
          -55 -45 -45 -55 hvcurveto
          500 hlineto
          55 -45 45 -55 vhcurveto
          -350 881 74 callsubr
          400 -220 -100 callsubr
        </CharString>
        <CharString name="glyph00589">
          107 callsubr
        </CharString>
        <CharString name="glyph00590">
          -74 callsubr
          -100 -900 -94 callsubr
          106 584 -37 callsubr
          -90 -316 -94 callsubr
          -4 880 rmoveto
          -83 callsubr
          -50 -220 -100 callsubr
        </CharString>
        <CharString name="glyph00591">
          350 hmoveto
          100 1000 -106 callsubr
          -100 -1100 -41 callsubr
          -350 -100 rmoveto
          -16 callsubr
          250 -90 -98 callsubr
        </CharString>
        <CharString name="glyph00593">
        </CharString>
        <CharString name="glyph00594">
          50 hmoveto
          -26 callsubr
        </CharString>
        <CharString name="glyph00595">
          50 hmoveto
          -26 callsubr
        </CharString>
        <CharString name="glyph00596">
          50 -150 -71 callsubr
          150 vmoveto
          28 22 22 28 28 -22 22 -28 -28 -22 -22 -28 -28 22 -22 28 hvcurveto
        </CharString>
        <CharString name="glyph00597">
          50 hmoveto
          30 callsubr
        </CharString>
        <CharString name="glyph00598">
          50 hmoveto
          30 callsubr
        </CharString>
        <CharString name="glyph00599">
          50 hmoveto
          30 callsubr
          -75 133 -71 callsubr
        </CharString>
        <CharString name="space">
        </CharString>
        <CharString name="uni0621">
          331 215 -46 -35 2 blend
          rmoveto
          66 callsubr
          1 -7 2 -3 6 214 callsubr
          -50 -100 388 8 16 -64 3 blend
          hlineto
          -58 23 -42 62 65 9 230 callsubr
          5 4 5 5 blend
          hhcurveto
          -41 -34 34 41 41 34 34 41 26 24 -14 -21 13 7 6 -6 -7 -7 -6 -5 -7 -4 -4 2 4 -2 13 blend
          hvcurveto
        </CharString>
        <CharString name="uni0623">
          0 vmoveto
          100 1000 -106 callsubr
          -42 -62 118 callsubr
        </CharString>
        <CharString name="uni0624">
          155 callsubr
          153 282 16 callsubr
        </CharString>
        <CharString name="uni0625">
          0 vmoveto
          100 1000 -106 callsubr
          78 -1261 118 callsubr
        </CharString>
        <CharString name="uni0626">
          3 callsubr
          228 272 16 callsubr
        </CharString>
        <CharString name="uni0627">
          0 vmoveto
          100 1000 -106 callsubr
        </CharString>
        <CharString name="uni0628">
          26 callsubr
          -250 -380 -71 callsubr
        </CharString>
        <CharString name="uni0629">
          -17 callsubr
          50 360 -27 callsubr
        </CharString>
        <CharString name="uni062A">
          26 callsubr
          -325 120 -27 callsubr
        </CharString>
        <CharString name="uni062B">
          26 callsubr
          -325 120 -27 callsubr
          -75 133 -71 callsubr
        </CharString>
        <CharString name="uni062C">
          51 callsubr
          220 -100 -71 callsubr
        </CharString>
        <CharString name="uni062D">
          51 callsubr
        </CharString>
        <CharString name="uni062E">
          51 callsubr
          -230 550 -71 callsubr
        </CharString>
        <CharString name="uni062F">
          53 callsubr
        </CharString>
        <CharString name="uni0630">
          53 callsubr
          400 -100 -71 callsubr
        </CharString>
        <CharString name="uni0631">
          56 callsubr
        </CharString>
        <CharString name="uni0632">
          56 callsubr
          50 220 -71 callsubr
        </CharString>
        <CharString name="uni0633">
          127 callsubr
        </CharString>
        <CharString name="uni0634">
          127 callsubr
          125 320 -27 callsubr
          -75 133 -71 callsubr
        </CharString>
        <CharString name="uni0635">
          -46 callsubr
          -85 callsubr
          25 150 -78 callsubr
          -575 -170 -102 callsubr
        </CharString>
        <CharString name="uni0636">
          -46 callsubr
          -85 callsubr
          25 150 -78 callsubr
          -575 -170 -102 callsubr
          400 220 -71 callsubr
        </CharString>
        <CharString name="uni0637">
          150 hmoveto
          -72 callsubr
          -400 rmoveto
          100 1000 -106 callsubr
          20 -1200 -101 callsubr
        </CharString>
        <CharString name="uni0638">
          150 hmoveto
          -72 callsubr
          -400 rmoveto
          100 1000 -106 callsubr
          20 -1200 -101 callsubr
          550 450 -71 callsubr
        </CharString>
        <CharString name="uni0639">
          115 callsubr
        </CharString>
        <CharString name="uni063A">
          115 callsubr
          -80 450 -71 callsubr
        </CharString>
        <CharString name="uni0640">
          -50 100 -94 callsubr
        </CharString>
        <CharString name="uni0641">
          150 42 callsubr
          300 -100 rmoveto
          350 100 -350 38 callsubr
          0 vmoveto
          24 callsubr
          -380 -240 -105 callsubr
          675 500 rmoveto
          -26 callsubr
        </CharString>
        <CharString name="uni0642">
          156 callsubr
          50 260 -27 callsubr
        </CharString>
        <CharString name="uni0643">
          -87 callsubr
          13 callsubr
          100 -20 -100 callsubr
        </CharString>
        <CharString name="uni0644">
          150 -150 154 callsubr
        </CharString>
        <CharString name="uni0645">
          -31 -150 rmoveto
          109 22 71 79 hvcurveto
          50 -100 -50 vlineto
          1 -42 0 -92 -101 -1 rrcurveto
          -9 15 31 -6 23 hhcurveto
          181 200 -73 callsubr
        </CharString>
        <CharString name="uni0646">
          65 callsubr
          -51 100 -71 callsubr
        </CharString>
        <CharString name="uni0647">
          -17 callsubr
        </CharString>
        <CharString name="uni0648">
          155 callsubr
        </CharString>
        <CharString name="uni0649">
          3 callsubr
        </CharString>
        <CharString name="uni064A">
          3 callsubr
          225 -150 -27 callsubr
        </CharString>
        <CharString name="uni0654">
          93 72 16 callsubr
        </CharString>
        <CharString name="uni0655">
          93 72 16 callsubr
        </CharString>
        <CharString name="uni066E">
          26 callsubr
        </CharString>
        <CharString name="uni066F">
          156 callsubr
        </CharString>
        <CharString name="uni06A1">
          150 42 callsubr
          300 -100 rmoveto
          350 100 -350 38 callsubr
          0 vmoveto
          24 callsubr
          -380 -240 -105 callsubr
        </CharString>
        <CharString name="uni06BA">
          65 callsubr
        </CharString>
        <CharString name="uni06CC">
          3 callsubr
        </CharString>
        <CharString name="uni06DD">
          300 hmoveto
          138 112 112 138 138 -112 112 -138 -138 -112 -112 -138 -138 112 -112 138 hvcurveto
          40 vmoveto
          -116 -94 94 116 116 94 94 116 116 94 -94 -116 -116 -94 -94 -116 hvcurveto
        </CharString>
</ttFont>
